<svg width="38" height="33" viewBox="0 0 38 33" fill="none" xmlns="http://www.w3.org/2000/svg">
<path d="M11.5055 30.991C11.4281 31.0133 11.085 31.0469 10.919 31.0469C10.2882 31.0469 9.94511 30.8568 9.94511 30.4094C9.94511 29.9622 10.2882 29.7832 10.919 29.7832C11.1292 29.7832 11.3727 29.8056 11.5055 29.8168V30.991ZM10.6755 26.831C10.1333 26.8198 9.65742 26.8869 9.19261 26.9987C9.1041 27.3119 9.11516 27.7704 9.19261 28.0946C9.76805 27.9604 10.089 27.9492 10.4542 27.9492C11.1624 27.9492 11.5055 28.24 11.5055 28.8327V28.8886C11.2952 28.8662 11.0407 28.8439 10.8637 28.8439C9.69061 28.8439 8.68359 29.2688 8.68359 30.4094C8.68359 31.6954 9.59099 32.1316 10.9079 32.1316C11.5276 32.1316 12.2027 32.0197 12.8224 31.8296V28.9333C12.8224 27.5467 12.081 26.8645 10.6755 26.831Z" fill="#CE1C30"/>
<path d="M8.14131 26.8976C7.48842 26.8976 7.11212 27.1548 6.75804 27.6134C6.72485 27.3785 6.68055 27.1884 6.6031 26.9535C6.47029 26.9088 6.23786 26.8976 6.03867 26.8976C5.85054 26.8976 5.6071 26.92 5.48535 26.9535V32.0193C5.65135 32.064 5.92804 32.0752 6.17148 32.0752C6.40386 32.0752 6.71374 32.0528 6.85761 32.0193V29.5479C6.85761 28.5639 7.36668 28.0383 8.0528 28.0383C8.1745 28.0383 8.3848 28.0383 8.50655 28.0606C8.584 27.7363 8.59506 27.2667 8.52868 26.9423C8.45118 26.92 8.25199 26.8976 8.14131 26.8976Z" fill="#CE1C30"/>
<path d="M1.9002 31.0022C1.75633 31.0022 1.53501 31.0022 1.38007 30.9463V28.1618C1.5682 28.0611 1.83382 28.0052 2.17684 28.0052C2.86297 28.0052 3.22821 28.486 3.22821 29.3919C3.22821 30.3424 2.79659 31.0022 1.9002 31.0022ZM2.40927 26.8533C2.01084 26.8533 1.62352 26.9428 1.38007 27.0658V24.5832C0.992756 24.7286 0.583258 24.9299 0.240193 25.2095C0.063182 25.3548 0.0078125 25.5003 0.0078125 25.7127V31.8408C0.373004 31.9974 1.11445 32.1316 1.82271 32.1316C3.61553 32.1316 4.64467 31.0245 4.64467 29.4254C4.64467 27.8374 3.91429 26.8533 2.40927 26.8533Z" fill="#CE1C30"/>
<path d="M16.8184 30.9238C16.5859 30.991 16.4199 31.0022 16.2318 31.0022C15.3244 31.0022 14.9702 30.3983 14.9702 29.526C14.9702 28.5531 15.3244 27.9604 16.2207 27.9604C16.4864 27.9604 16.6523 27.994 16.8184 28.0387V30.9238ZM16.8184 25.7127V26.9316C16.5749 26.8645 16.3204 26.8533 16.099 26.8533C14.5829 26.8533 13.5537 27.8822 13.5537 29.526C13.5537 31.2034 14.5608 32.1316 16.1322 32.1316C16.8516 32.1316 17.5598 32.0309 18.1906 31.8185V24.5832C17.8033 24.7286 17.3938 24.9299 17.0507 25.2095C16.8737 25.3548 16.8184 25.5003 16.8184 25.7127Z" fill="#CE1C30"/>
<path d="M26.6342 29.0117L26.0808 28.7768C25.7599 28.6426 25.5718 28.5307 25.5718 28.3183C25.5718 27.994 25.8595 27.9269 26.2358 27.9269C26.612 27.9269 26.9993 27.9717 27.5306 28.1393C27.597 27.7704 27.597 27.4237 27.5306 27.0993C27.1986 26.9204 26.5788 26.831 26.0366 26.831C24.9742 26.831 24.1664 27.4125 24.1664 28.2847C24.1664 29.0675 24.4984 29.4589 25.4279 29.8391L25.8595 30.0181C26.269 30.1858 26.3907 30.2864 26.3907 30.5548C26.3907 30.9574 25.9923 31.0245 25.6603 31.0245C25.107 31.0245 24.6864 30.9127 24.1552 30.7226C24.0667 31.0469 24.0667 31.4718 24.1552 31.8073C24.609 32.0533 25.2287 32.1316 25.8816 32.1316C26.933 32.1316 27.774 31.5725 27.774 30.566C27.774 29.7385 27.4199 29.3471 26.6342 29.0117Z" fill="#CE1C30"/>
<path d="M30.906 30.991C30.2199 30.991 29.7661 30.443 29.7661 29.4813C29.7661 28.5643 30.1313 27.9717 30.9171 27.9717C31.2491 27.9717 31.4814 28.0275 31.7913 28.1505C31.8798 27.8374 32.0458 27.4796 32.2783 27.1777C31.8466 26.954 31.4261 26.831 30.74 26.831C29.2239 26.831 28.3496 27.9157 28.3496 29.4813C28.3496 31.1028 29.246 32.1316 30.7953 32.1316C31.3597 32.1316 31.8798 32.0309 32.3004 31.7961C32.1122 31.5501 31.902 31.2146 31.7803 30.8232C31.3929 30.9798 31.2269 30.991 30.906 30.991Z" fill="#CE1C30"/>
<path d="M34.7462 31.0133C33.9826 31.0133 33.7502 30.3871 33.7502 29.4925C33.7502 28.6202 33.9826 27.9492 34.7462 27.9492C35.5319 27.9492 35.7532 28.5979 35.7532 29.4925C35.7532 30.4318 35.4986 31.0133 34.7462 31.0133ZM34.7462 26.831C33.2079 26.831 32.3447 27.8933 32.3447 29.4925C32.3447 31.114 33.2522 32.1316 34.7462 32.1316C36.2955 32.1316 37.1586 31.0916 37.1586 29.4925C37.1586 27.8822 36.2955 26.831 34.7462 26.831Z" fill="#CE1C30"/>
<path d="M20.315 28.8774C20.4145 28.2624 20.7797 27.8933 21.3331 27.8933C21.9528 27.8933 22.1963 28.3183 22.2184 28.8774H20.315ZM21.3552 26.831C19.8723 26.831 18.9648 27.8374 18.9648 29.5148C18.9648 31.1923 19.9276 32.1316 21.5766 32.1316C22.1409 32.1316 22.7496 32.0309 23.1369 31.8408C23.2144 31.5165 23.2144 31.0916 23.1369 30.7673C22.6279 30.9127 22.1963 31.0022 21.7204 31.0022C20.9568 31.0022 20.4256 30.7114 20.315 29.895H23.4357C23.48 29.7721 23.491 29.3583 23.491 29.1906C23.491 27.6809 22.65 26.831 21.3552 26.831Z" fill="#CE1C30"/>
<path d="M18 5.25173C16.7525 5.25173 15.3885 5.3675 14.0413 5.59904C15.4052 3.82954 17.5675 2.68845 19.9793 2.68845C21.7591 2.68845 23.5388 3.36652 24.7364 4.37529C24.9527 4.55717 25.119 4.57372 25.2854 4.40834C25.4517 4.24296 25.4351 4.07758 25.2521 3.8626C23.6886 2.02699 21.3932 0.786674 18.6819 0.836282C15.1391 0.902444 12.1284 3.16803 10.9807 6.31011C9.93282 6.64087 8.96809 7.03774 8.11979 7.51732C7.88693 7.64964 7.80374 7.81502 7.88693 8.01345C7.97006 8.19533 8.13644 8.2615 8.3693 8.19533C9.10117 7.98035 9.84963 7.79847 10.6315 7.63309C10.5483 8.04651 10.4984 8.47648 10.4984 8.92301C10.4318 11.817 11.9621 14.5622 14.324 16.0671C14.5569 16.2159 14.7565 16.2159 14.8896 16.034C15.0226 15.8521 15.006 15.6867 14.8064 15.5048C13.3094 14.1487 12.4777 12.1312 12.4777 10.1302C12.4777 9.12144 12.6773 8.14578 13.0599 7.26928C13.8416 7.20311 14.6899 7.15351 15.6214 7.15351C21.6759 7.15351 26.7824 9.17105 26.7824 11.817C26.7824 13.1565 25.1024 14.496 23.1064 15.3891C22.6241 15.604 22.5742 15.7529 22.6406 15.9679C22.7072 16.1663 22.9234 16.2325 23.1729 16.1497C26.6659 14.9921 29.3106 13.0904 29.3106 10.7917C29.3106 7.6662 24.3207 5.25173 18 5.25173Z" fill="#CE1C30"/>
<path d="M20.8908 21.1497V14.4536C20.8908 14.197 20.6456 14.1034 20.4434 14.2197L18.7588 15.1994V21.4727L20.5684 21.4751C20.7464 21.4753 20.8908 21.3296 20.8908 21.1497Z" fill="#CE1C30"/>
<path d="M16.708 16.6347V21.2653C16.708 21.3811 16.801 21.4751 16.9157 21.4751H18.1904V15.5294L16.9178 16.2698C16.7881 16.3445 16.708 16.4622 16.708 16.6347Z" fill="#CE1C30"/>
</svg>
