<svg width="32" height="32" viewBox="0 0 32 32" fill="none" xmlns="http://www.w3.org/2000/svg">
<path d="M13.5994 0.854786C12.7116 0.876116 12.0604 0.907655 10.8664 0.982049C10.3142 1.01534 9.71139 1.06438 9.28689 1.1073C9.18033 1.119 8.95743 1.14059 8.79271 1.15633C8.10078 1.22494 7.07349 1.35597 6.6414 1.43043C6.55015 1.44617 6.41644 1.46776 6.34103 1.47946C6.26735 1.48935 6.13544 1.51269 6.05018 1.5285C5.96498 1.54423 5.82149 1.57168 5.7305 1.58715C5.41051 1.64204 4.86607 1.75376 4.55791 1.82822C4.47246 1.84981 4.31938 1.88688 4.21861 1.91055C4.11778 1.93389 4.02685 1.95548 4.01527 1.9575C3.44715 2.09445 2.88315 2.37083 2.44907 2.72921C2.0265 3.07595 1.64872 3.63612 1.4587 4.19239C1.42782 4.27855 1.39661 4.36667 1.38709 4.38826C1.35414 4.46272 1.21065 5.08935 1.10782 5.60276C1.09251 5.68886 1.06535 5.81612 1.04978 5.88674C1.03414 5.95711 1.0131 6.08053 0.999461 6.16085C0.987685 6.24109 0.972306 6.33916 0.962525 6.37622C0.933376 6.48808 0.815235 7.25186 0.739563 7.80617C0.66595 8.34293 0.617433 8.73285 0.574964 9.12836C0.553601 9.32215 0.532238 9.51217 0.528441 9.5495C0.522648 9.58656 0.505083 9.77665 0.48771 9.97069C0.472137 10.1645 0.449037 10.4015 0.437197 10.4996C0.396465 10.8598 0.295634 12.4289 0.245443 13.5356C0.206707 14.3561 0.181547 16.1132 0.195124 17.0711C0.208701 18.2659 0.237593 19.3335 0.264747 19.7056C0.274592 19.8563 0.293897 20.1738 0.305479 20.4108C0.317061 20.6478 0.332633 20.9513 0.342414 21.0865C0.386942 21.7642 0.421882 22.2088 0.439192 22.3497C0.449037 22.4361 0.472137 22.6653 0.48771 22.857C0.503281 23.0491 0.526446 23.2782 0.536226 23.3664C0.547809 23.4545 0.569173 23.6445 0.584487 23.7896C0.633005 24.2537 0.669939 24.5573 0.700891 24.7592C0.716463 24.8669 0.743617 25.051 0.758932 25.1704C0.815235 25.6012 0.881062 26.0204 0.952744 26.4045C0.968317 26.4906 0.993476 26.6357 1.01104 26.7276C1.04399 26.9234 1.1196 27.3134 1.1739 27.56C1.35987 28.424 1.44133 28.6823 1.6603 29.1075C1.72034 29.2249 1.79781 29.3621 1.83275 29.4111C1.86563 29.4601 1.91415 29.5305 1.93931 29.5678C2.04986 29.7342 2.36587 30.0594 2.54031 30.1849C2.5692 30.2062 2.62551 30.2473 2.66218 30.2768C2.70118 30.3081 2.73786 30.3317 2.74764 30.3317C2.75542 30.3317 2.77479 30.3454 2.79011 30.3612C2.86578 30.4356 3.39889 30.6922 3.62739 30.7607C3.67011 30.7745 3.72243 30.7919 3.74379 30.8019C3.7943 30.8253 4.07904 30.8977 4.4222 30.9762C4.57149 31.0115 4.72457 31.0486 4.76131 31.0584C4.85049 31.0819 5.4125 31.1954 5.83706 31.2739C6.08113 31.3188 6.5562 31.3953 6.85451 31.4385C6.96693 31.454 7.11042 31.4755 7.17432 31.4872C7.4088 31.5284 8.37799 31.6422 8.98652 31.7009C9.20549 31.7225 9.47491 31.7479 9.58726 31.7595C9.76949 31.7791 9.95552 31.7948 10.847 31.8594C10.9808 31.8693 11.2852 31.8869 11.5255 31.8988C11.7658 31.9105 12.1011 31.928 12.2718 31.9379C13.6517 32.0182 17.5977 32.0182 18.9583 31.9379C19.1289 31.9262 19.4643 31.9105 19.7046 31.8988C20.1173 31.8792 20.2686 31.8693 20.9159 31.8203C21.7453 31.7558 22.9647 31.6361 23.3774 31.5774C23.4955 31.5599 23.6991 31.5324 23.8328 31.5147C24.327 31.4502 25.0054 31.3463 25.393 31.2739C25.8175 31.1954 26.3796 31.0819 26.4688 31.0584C26.5055 31.0486 26.6586 31.0115 26.8079 30.9762C27.1432 30.8997 27.434 30.8253 27.4863 30.8019C27.5507 30.7784 27.6153 30.7556 27.6801 30.7333C27.8389 30.6805 28.3663 30.4277 28.4107 30.3845C28.4243 30.3708 28.463 30.3416 28.496 30.3218C28.6473 30.226 28.7169 30.1712 28.8547 30.0457C29.0097 29.9026 29.2249 29.6677 29.2772 29.5874C29.2945 29.5599 29.3411 29.4934 29.3797 29.4406C29.4205 29.3857 29.4534 29.3367 29.4534 29.3288C29.4534 29.3209 29.4846 29.2661 29.5212 29.2074C29.5582 29.1487 29.6027 29.0623 29.6203 29.0153C29.6396 28.9704 29.6589 28.9214 29.6668 28.9117C29.7035 28.8627 29.8392 28.4728 29.8973 28.2515C29.9885 27.9088 30.1589 27.0998 30.221 26.7177C30.2366 26.6199 30.2539 26.5279 30.2597 26.5122C30.2773 26.469 30.3839 25.7971 30.4806 25.1118C30.502 24.9609 30.5234 24.81 30.5292 24.7787C30.5448 24.6886 30.6144 24.0873 30.6456 23.77C30.6609 23.6133 30.6822 23.433 30.6938 23.3684C30.7057 23.3036 30.7268 23.0923 30.7423 22.8982C30.7579 22.7044 30.7793 22.4654 30.7889 22.3693C30.8004 22.2715 30.818 22.0483 30.8295 21.8699C30.8411 21.6916 30.8587 21.4724 30.8683 21.3802C30.88 21.2882 30.9012 20.9493 30.9168 20.6262C30.9344 20.3029 30.9537 19.9053 30.9653 19.7448C31.0525 18.3207 31.0525 14.5835 30.9653 13.1145C30.9555 12.9478 30.9381 12.6209 30.9266 12.3897C30.9148 12.1586 30.8974 11.853 30.8876 11.7138C30.8761 11.5728 30.851 11.2261 30.8295 10.9403C30.8082 10.6543 30.7868 10.3858 30.781 10.3429C30.7752 10.2996 30.7579 10.1097 30.7423 9.92166C30.7268 9.73373 30.7094 9.55736 30.7036 9.52999C30.6978 9.50254 30.6765 9.32215 30.6551 9.12836C30.6049 8.66015 30.5427 8.14322 30.5292 8.08255C30.5234 8.05511 30.502 7.89838 30.4806 7.73756C30.3857 7.0052 30.2095 5.98455 30.0581 5.28931C30.0368 5.19125 30.0021 5.0327 29.9807 4.93672C29.9264 4.68596 29.8623 4.43326 29.8412 4.38826C29.8314 4.36667 29.8141 4.31386 29.8005 4.27068C29.7578 4.12586 29.5426 3.64197 29.4883 3.5655C29.4805 3.55379 29.4187 3.46184 29.3526 3.36C29.2151 3.15041 28.8624 2.77824 28.6511 2.62152C28.2326 2.31009 27.7673 2.09849 27.1666 1.94963C27.0631 1.92406 26.9597 1.89789 26.8564 1.87114C26.7847 1.84981 26.6412 1.81834 26.333 1.75376C26.2457 1.73526 26.1585 1.71629 26.0714 1.69686C25.6973 1.60491 24.4801 1.405 23.6875 1.30317C23.5284 1.28359 23.3716 1.262 23.3386 1.25439C23.2803 1.24243 22.9993 1.21323 22.4278 1.15633C22.2686 1.14059 22.0497 1.11718 21.9432 1.1073C21.8366 1.09559 21.6446 1.07803 21.5169 1.06613C21.3889 1.05651 21.1796 1.03869 21.0516 1.02907C20.6175 0.991738 19.412 0.921376 18.7452 0.891852C17.4562 0.835016 15.0761 0.817459 13.5994 0.854786H13.5994ZM5.05988 14.09C5.07146 14.0996 5.12777 14.1174 5.18381 14.1311C5.28863 14.1565 5.43592 14.2251 5.54621 14.2995C5.63347 14.3582 5.83906 14.5815 5.87953 14.6599C5.89916 14.6991 5.92026 14.7344 5.92605 14.7403C5.9321 14.7461 5.94941 14.7852 5.96498 14.8284C5.97856 14.8713 5.99587 14.9166 6.00571 14.9262C6.03081 14.9635 6.06002 15.1964 6.06002 15.369C6.06002 15.5374 6.03461 15.7352 6.00172 15.8077C5.89716 16.0505 5.84665 16.1307 5.71493 16.272C5.59274 16.3992 5.54248 16.4384 5.37582 16.5207C5.24005 16.5893 5.14308 16.6246 5.06567 16.6322C5.00358 16.64 4.94927 16.6538 4.94348 16.6617C4.92996 16.6853 4.50939 16.6853 4.50939 16.6617C4.50939 16.6538 4.46087 16.64 4.39878 16.6322C4.33874 16.6246 4.26333 16.6068 4.23038 16.5931C4.18836 16.574 4.14569 16.5563 4.10246 16.5402C4.06553 16.5266 4.03059 16.5108 4.02479 16.5049C4.019 16.4971 3.98985 16.4796 3.95691 16.4638C3.84456 16.4071 3.61201 16.1465 3.54419 16.0035C3.50725 15.9271 3.47257 15.8526 3.46279 15.8371C3.3969 15.7038 3.38532 15.0966 3.44715 14.9556C3.46478 14.9183 3.48988 14.8558 3.50346 14.8184C3.51703 14.7814 3.53261 14.746 3.5384 14.7403C3.54419 14.7344 3.56735 14.695 3.58872 14.6521C3.62565 14.5794 3.85614 14.3287 3.88909 14.3287C3.89681 14.3287 3.91444 14.315 3.92802 14.2975C3.96469 14.2563 4.15272 14.1644 4.26712 14.135C4.32137 14.1212 4.38147 14.1016 4.40283 14.0917C4.4242 14.0821 4.47645 14.0722 4.51898 14.0664C4.63332 14.0546 5.03472 14.0722 5.05988 14.09ZM26.178 15.4551V16.4442H22.418V15.1202L22.6274 15.0867C23.0906 15.0144 23.3794 14.9653 23.3968 14.9536C23.4083 14.9458 23.5033 14.9302 23.6099 14.9166C23.7164 14.9028 23.8135 14.885 23.8231 14.8771C23.8348 14.8695 23.9258 14.8518 24.0266 14.8381C24.1274 14.8264 24.2591 14.8028 24.3175 14.7872C24.3755 14.7736 24.4977 14.7519 24.5887 14.7403C24.6799 14.7283 24.7709 14.7108 24.7922 14.7029C24.8136 14.6932 24.9104 14.6755 25.0054 14.6618C25.1024 14.6501 25.2108 14.6325 25.2477 14.6206C25.2844 14.6109 25.4241 14.5835 25.5578 14.5619C25.6916 14.5403 25.8661 14.5112 25.9455 14.4974C26.0249 14.4816 26.1101 14.4699 26.1353 14.4679L26.178 14.4659V15.4551ZM10.13 16.3286V17.502H12.0681V19.2453H10.1282L10.1358 21.0611C10.1417 23.0179 10.1377 22.9218 10.2426 23.1626C10.322 23.3489 10.5467 23.5388 10.7405 23.5858C10.7734 23.5937 10.8104 23.6092 10.8259 23.6211C10.8626 23.6504 11.6477 23.6504 11.6826 23.6191C11.6979 23.6074 11.7678 23.5917 11.8414 23.5838L11.9714 23.5701V25.2881L11.9189 25.3115C11.8706 25.333 11.6477 25.3683 11.3415 25.4054C10.9054 25.4565 10.1106 25.4623 10.0641 25.4132C10.0525 25.4036 10.0216 25.3958 9.99246 25.3958C9.91678 25.3958 9.60283 25.3368 9.57948 25.3193C9.56789 25.3115 9.51565 25.2918 9.46134 25.2802C9.40909 25.2665 9.35677 25.2487 9.345 25.241C9.33541 25.2312 9.29095 25.2136 9.24822 25.1999C9.20549 25.1862 9.16676 25.1684 9.16096 25.1626C9.15517 25.1567 9.12023 25.1351 9.0833 25.1135C8.92243 25.0274 8.87417 24.9962 8.78872 24.9235C8.73846 24.8824 8.69194 24.8474 8.68216 24.8474C8.66279 24.8453 8.5155 24.6827 8.39935 24.5339C8.31017 24.4183 8.17819 24.1971 8.13367 24.0833C8.11809 24.0462 8.10079 24.0108 8.09499 24.005C8.08721 23.9991 8.06784 23.9384 8.04847 23.8678C8.0309 23.7974 8.00774 23.723 7.99796 23.7014C7.98844 23.6798 7.96501 23.5917 7.9497 23.5056C7.93328 23.4237 7.91577 23.3421 7.89719 23.2607C7.88362 23.202 7.87403 22.5123 7.86824 21.208L7.86051 19.2453H6.73818V17.502H7.86251V15.5274L7.99416 15.5138C8.06585 15.5061 8.13367 15.4924 8.14345 15.4845C8.15503 15.4767 8.25007 15.4592 8.35663 15.4454C8.46319 15.4317 8.56022 15.4119 8.56981 15.4043C8.58139 15.3964 8.70352 15.3748 8.84122 15.3573C8.98073 15.3374 9.10292 15.3161 9.11245 15.3082C9.12403 15.3004 9.18812 15.2866 9.25774 15.2808C9.34883 15.2698 9.43941 15.2548 9.52922 15.2359C9.73661 15.1927 10.099 15.1357 10.1164 15.1457C10.1242 15.1495 10.1299 15.6824 10.1299 16.3286L10.13 16.3286ZM16.5551 17.3158C16.8263 17.3315 17.1327 17.3668 17.1558 17.3844C17.1674 17.3922 17.2139 17.406 17.2624 17.4118C17.373 17.4296 17.6425 17.5098 17.8051 17.5763C17.9408 17.6313 18.2432 17.7839 18.2897 17.8233C18.3053 17.835 18.34 17.8584 18.3671 17.8703C18.3942 17.884 18.4797 17.9524 18.5551 18.0192C18.6308 18.0877 18.7007 18.1465 18.7102 18.1502C18.7394 18.164 19.0842 18.5872 19.0842 18.6105C19.0842 18.6164 19.1019 18.6479 19.1232 18.6771C19.1639 18.736 19.3363 19.0749 19.3363 19.0965C19.3363 19.1041 19.3519 19.1473 19.373 19.1923C19.3924 19.2375 19.4157 19.3061 19.4236 19.3431C19.4313 19.3805 19.445 19.4196 19.4525 19.4313C19.4602 19.4412 19.4778 19.5037 19.4914 19.5685C19.503 19.633 19.5186 19.6998 19.5244 19.7153C19.5321 19.7311 19.5494 19.8151 19.5651 19.9015C19.5883 20.0308 19.594 20.5185 19.6018 22.677L19.6096 25.2977H17.4951L17.4932 25.0666C17.4911 24.9413 17.4853 24.7592 17.4775 24.6631L17.466 24.4869L17.4097 24.5651C17.3207 24.6848 17.0279 24.9667 16.9117 25.045C16.6576 25.2136 16.59 25.2545 16.5201 25.2782C16.4774 25.2899 16.4214 25.3135 16.3942 25.3289C16.365 25.3427 16.2934 25.3663 16.2351 25.378C16.177 25.3917 16.119 25.4095 16.1092 25.4171C16.0104 25.4915 14.7893 25.4897 14.6943 25.4153C14.6848 25.4075 14.6149 25.39 14.5392 25.3762C14.4656 25.3625 14.3783 25.3409 14.3455 25.3251C14.3146 25.3115 14.231 25.2761 14.1634 25.2487C14.0855 25.2144 14.0092 25.1765 13.9347 25.1351C13.8832 25.103 13.8308 25.0723 13.7776 25.0432C13.6962 24.998 13.669 24.9725 13.4481 24.7492C13.2214 24.5201 13.1922 24.4889 13.1922 24.4673C13.1922 24.4594 13.1671 24.4163 13.1382 24.3713C13.107 24.3263 13.0625 24.244 13.0391 24.1909C13.016 24.1363 12.9848 24.0715 12.9713 24.0441C12.956 24.0167 12.9346 23.9463 12.921 23.8874C12.9074 23.8287 12.8901 23.77 12.8823 23.7601C12.8609 23.7327 12.824 23.4545 12.824 23.3331C12.824 23.2765 12.8145 23.2195 12.8029 23.2079C12.7795 23.1842 12.7852 23.106 12.8453 22.6337C12.8569 22.5418 12.8745 22.4575 12.8823 22.4478C12.8901 22.4361 12.9074 22.3851 12.919 22.3323C12.9441 22.2304 12.9967 22.0972 13.0509 21.9972C13.0683 21.9639 13.0915 21.9189 13.1032 21.8953C13.1148 21.87 13.1304 21.8504 13.1399 21.8504C13.1477 21.8504 13.1535 21.8387 13.1535 21.825C13.1535 21.8034 13.3667 21.5232 13.4036 21.4978C13.4113 21.4919 13.425 21.4724 13.4308 21.4528C13.4385 21.4312 13.4617 21.4117 13.483 21.4058C13.5044 21.4 13.5218 21.388 13.5218 21.3801C13.5218 21.3606 13.8475 21.102 13.9578 21.0374C14.0372 20.9885 14.2157 20.8965 14.4754 20.771C14.5123 20.7515 14.8745 20.6341 15.0336 20.5889C15.0917 20.5714 15.2061 20.5477 15.2855 20.5361C15.3649 20.5223 15.4406 20.5066 15.4504 20.499C15.4619 20.4911 15.5781 20.4733 15.7121 20.4616C15.8458 20.4499 16.0104 20.4304 16.0802 20.4204C16.3555 20.3793 17.3225 20.3872 17.4253 20.4304C17.4602 20.4459 17.462 20.4382 17.4485 20.2716C17.4409 20.1756 17.4273 20.0933 17.4195 20.0874C17.4097 20.0816 17.3981 20.0445 17.3904 20.0052C17.3768 19.9327 17.3031 19.7742 17.2335 19.6663C17.1888 19.5979 17.0007 19.4018 16.9794 19.4018C16.9718 19.4018 16.9389 19.3823 16.9058 19.3569C16.8205 19.2941 16.6831 19.2316 16.5996 19.2159C16.5589 19.208 16.5259 19.1943 16.5259 19.1864C16.5259 19.1003 15.2739 19.0866 14.8979 19.1709C14.8494 19.1806 14.7371 19.2021 14.646 19.2179C14.5548 19.2334 14.4638 19.255 14.4424 19.2649C14.4211 19.2745 14.3514 19.2924 14.2874 19.304C14.2235 19.3157 14.1536 19.3335 14.1323 19.3431C14.1109 19.353 14.0335 19.3746 13.9598 19.3922C13.8862 19.4097 13.8163 19.4292 13.8048 19.4391C13.7932 19.4471 13.7409 19.4666 13.6866 19.4803C13.6344 19.494 13.5801 19.5136 13.5703 19.5215C13.5587 19.5293 13.5064 19.5468 13.4539 19.5606C13.3998 19.5723 13.3241 19.5997 13.2855 19.6193C13.2447 19.6409 13.2078 19.6566 13.202 19.6566C13.1962 19.6566 13.1922 19.2471 13.1922 18.7477C13.1922 18.0405 13.1982 17.835 13.2176 17.8192C13.2312 17.8075 13.2855 17.788 13.3377 17.7743C13.392 17.7626 13.4443 17.7448 13.4539 17.737C13.4657 17.7291 13.5295 17.7058 13.5994 17.6879C13.669 17.6684 13.7349 17.647 13.7447 17.6392C13.7563 17.6292 13.8163 17.6135 13.8784 17.6C13.9425 17.5864 14.0084 17.5685 14.0237 17.5589C14.0413 17.5511 14.1207 17.5294 14.2002 17.5119C14.2619 17.4997 14.3233 17.486 14.3844 17.4707C14.4055 17.4646 14.5141 17.4471 14.6265 17.4313C14.7391 17.4159 14.8572 17.3943 14.8881 17.3844C15.0007 17.3493 16.0162 17.2846 16.2449 17.2983C16.3087 17.302 16.4485 17.31 16.5551 17.3158L16.5551 17.3158ZM5.86595 21.4V25.2977H3.5985V17.502H5.86595V21.4ZM22.9993 19.9307C22.9993 22.2499 23.0091 22.6986 23.0557 22.7613C23.0652 22.7709 23.077 22.81 23.0848 22.8474C23.112 22.9942 23.2379 23.2079 23.3811 23.3527C23.4568 23.4311 23.542 23.4997 23.5691 23.5073C23.5983 23.5135 23.6197 23.5252 23.6197 23.533C23.6197 23.5406 23.6875 23.5681 23.7707 23.5955C23.8949 23.6349 23.9608 23.6425 24.1546 23.6425C24.2903 23.6425 24.4084 23.6329 24.4356 23.6211C24.4607 23.6075 24.5208 23.5879 24.5693 23.5741C24.6178 23.5605 24.7051 23.5193 24.7631 23.4799C24.8716 23.4095 25.0732 23.2216 25.0732 23.1901C25.0732 23.1804 25.1004 23.1373 25.1314 23.0961C25.1642 23.0529 25.1897 23.01 25.1897 22.9983C25.1897 22.9863 25.207 22.9452 25.2263 22.9061C25.2477 22.8669 25.2709 22.8004 25.2786 22.7592C25.2844 22.7161 25.2979 22.6731 25.3078 22.6633C25.3563 22.6005 25.3641 22.205 25.3641 19.9073V17.502H27.6316V25.2978H26.5579C25.7188 25.2978 25.4782 25.2919 25.4667 25.2723C25.4589 25.2606 25.4494 25.0744 25.4454 24.861C25.4415 24.6495 25.4318 24.4752 25.4242 24.4752C25.4165 24.4752 25.3931 24.4986 25.37 24.528C25.2613 24.6769 25.0907 24.8453 24.8233 25.0686C24.7845 25.0998 24.7051 25.143 24.5307 25.2291C24.4512 25.2682 24.364 25.3134 24.3369 25.3271C24.3097 25.3409 24.2361 25.3625 24.1719 25.3762C24.1081 25.3899 24.0518 25.4074 24.046 25.4153C24.0267 25.4446 23.6836 25.474 23.3445 25.474C23.0112 25.474 22.7398 25.4506 22.6603 25.4171C22.6389 25.4075 22.5653 25.3839 22.4954 25.3663C22.4258 25.3487 22.3617 25.3251 22.3502 25.3173C22.3406 25.3094 22.2941 25.2898 22.2494 25.2761C22.2029 25.2644 22.1662 25.2469 22.1662 25.239C22.1662 25.2312 22.1312 25.2137 22.0885 25.1999C22.046 25.1862 22.011 25.1684 22.011 25.1605C22.011 25.1529 21.9897 25.1371 21.9646 25.1254C21.7979 25.049 21.4199 24.6906 21.261 24.4595C21.164 24.3185 21.0147 24.0362 20.9838 23.9326C20.9722 23.8914 20.9489 23.8307 20.9353 23.7993C20.9217 23.766 20.8986 23.6956 20.8868 23.6425C20.8752 23.5879 20.8578 23.531 20.848 23.5114C20.8385 23.4936 20.8209 23.4017 20.8094 23.3057C20.7978 23.2117 20.7764 23.1157 20.7648 23.0941C20.7473 23.0648 20.7395 22.3655 20.7357 20.2774L20.7299 17.502H22.9994L22.9993 19.9307Z" fill="#FF6200"/>
<path d="M16.3308 21.8889C16.2425 21.8988 16.1521 21.9149 16.1322 21.9248C16.1122 21.937 16.0473 21.9549 15.9876 21.9689C15.9299 21.9808 15.8521 22.005 15.816 22.0229C15.5449 22.153 15.413 22.2392 15.3228 22.3433C15.2361 22.4435 15.1492 22.6296 15.1349 22.7457C15.1311 22.7856 15.1185 22.8378 15.1077 22.8596C15.0878 22.9058 15.0951 23.0479 15.1276 23.2339C15.1637 23.4362 15.3083 23.6825 15.4364 23.7566C15.6642 23.8866 15.7076 23.9066 15.8342 23.9287C16.0616 23.9666 16.4954 23.9448 16.5893 23.8887C16.6055 23.8786 16.6725 23.8446 16.7374 23.8126C16.8026 23.7786 16.8874 23.7243 16.9272 23.6903C16.967 23.6564 17.012 23.6163 17.0284 23.6023C17.1313 23.5164 17.3211 23.168 17.3464 23.0239C17.3518 22.9878 17.3663 22.9458 17.3771 22.9297C17.3897 22.9117 17.3987 22.7275 17.4024 22.3972L17.4096 21.8928L17.312 21.8809C17.18 21.8627 16.5298 21.8689 16.3308 21.8889Z" fill="#FF6200"/>
</svg>
