<svg width="65" height="27" viewBox="0 0 65 27" fill="none" xmlns="http://www.w3.org/2000/svg">
<path fill-rule="evenodd" clip-rule="evenodd" d="M36.7168 13.111C36.9475 12.0642 37.0185 10.9757 36.9227 9.88997L39.0644 8.91635C38.8248 10.5894 37.9433 12.0567 36.7168 13.111ZM36.8711 9.42299L39.1168 8.40356C39.1712 7.5414 39.0562 6.63205 38.7311 5.70356L38.6326 5.43964L36.1019 6.62521C36.4903 7.52977 36.7451 8.47262 36.8711 9.42299ZM35.3795 14.0224L34.0373 11.2013L36.5371 10.0657C36.617 11.1781 36.5247 12.322 36.2644 13.4692C35.9834 13.675 35.6866 13.8603 35.3795 14.0224ZM33.8452 10.7966L36.4923 9.5946C36.3794 8.62646 36.1322 7.68566 35.7465 6.79136L32.6331 8.24973L33.8452 10.7966ZM34.1282 14.5365C32.9933 13.9458 32.0223 13.2552 31.2083 12.4874L33.6833 11.362L35.0365 14.1919C34.7418 14.328 34.4381 14.4429 34.1282 14.5365ZM30.802 12.672C31.585 13.4357 32.5154 14.1147 33.5986 14.674C31.9672 15.0261 30.1946 14.769 28.6121 13.6668L30.802 12.672ZM30.8661 12.1503L33.4898 10.9586L32.275 8.41724L29.1809 9.86604C29.6189 10.6769 30.1802 11.4441 30.8661 12.1503ZM27.6149 5.83415L25.6599 6.72298C25.9271 5.21265 26.7169 3.88008 27.8071 2.8839C27.6067 3.84521 27.5412 4.84002 27.6149 5.83415ZM30.4288 4.55491L28.002 5.65843C27.9427 4.62397 28.0316 3.56352 28.2643 2.49897C28.5487 2.27881 28.849 2.07985 29.1616 1.90482L30.4288 4.55491ZM33.2281 3.28319L30.7965 4.38808L29.5252 1.71474C29.82 1.57116 30.1251 1.44809 30.437 1.34759C31.5127 1.90892 32.4417 2.5605 33.2281 3.28319ZM30.9893 4.79284L33.5766 3.61753C34.2625 4.30467 34.8272 5.04992 35.2741 5.83962L32.1697 7.27474L30.9893 4.79284ZM28.0398 6.13157L30.6216 4.95899L31.8088 7.44157L28.714 8.8726C28.3601 7.99538 28.1369 7.07578 28.0398 6.13157ZM25.5889 7.24466L27.6597 6.30386C27.7692 7.22962 28.0006 8.15059 28.358 9.03737L25.9594 10.1457C25.6096 9.14472 25.5022 8.16631 25.5889 7.24466ZM35.909 2.06481C34.3251 1.02966 32.565 0.819071 30.9521 1.20332C31.9844 1.73662 32.8776 2.37795 33.6372 3.09722L35.909 2.06481ZM32.3763 0.112789C35.1508 0.112789 37.097 1.42553 38.444 2.94339L37.4778 3.44455C37.1142 3.0268 36.7313 2.66921 36.3346 2.36564L33.9781 3.43566C34.644 4.12485 35.1956 4.87831 35.6356 5.67279L39.2084 4.02093C39.8226 5.17915 40.1656 6.54727 40.2165 7.89351C40.2358 12.0362 36.7643 15.7365 32.315 15.7365C29.5404 15.7365 27.5943 14.4237 26.2473 12.9059L27.2128 12.4047C27.5295 12.7671 27.8601 13.0843 28.201 13.3598L30.4666 12.3308C29.8007 11.6218 29.2539 10.8479 28.8221 10.0342L25.3878 11.6423C24.8555 10.6127 24.5332 9.48589 24.4747 7.95505C24.4554 3.81308 27.9269 0.112789 32.3763 0.112789Z" fill="#1D1C19"/>
<path fill-rule="evenodd" clip-rule="evenodd" d="M6.36819 23.1211C5.88269 23.5224 5.17613 23.7227 4.28709 23.7227H2.54893V26.6921H0.87207V18.4061H4.40829C5.23605 18.4061 5.88269 18.6277 6.36819 19.0482C6.853 19.4898 7.0954 20.1517 7.0954 21.0344C7.0954 22.0176 6.853 22.6999 6.36819 23.1211ZM5.0749 20.1319C4.85247 19.9514 4.54946 19.8508 4.14523 19.8508H2.54893V22.2986H4.14523C4.54946 22.2986 4.85247 22.1981 5.0749 21.997C5.29734 21.7967 5.41854 21.476 5.41854 21.0549C5.41854 20.6132 5.29734 20.3124 5.0749 20.1319Z" fill="#1D1C19"/>
<path fill-rule="evenodd" clip-rule="evenodd" d="M13.7381 18.6275C14.0411 18.7677 14.3042 18.9482 14.506 19.2094C14.6878 19.4097 14.829 19.6504 14.9302 19.9116C15.0314 20.1516 15.092 20.4531 15.092 20.7744C15.092 21.1751 14.9908 21.5559 14.789 21.9374C14.6072 22.3183 14.2836 22.5794 13.8394 22.7401C14.203 22.9001 14.4654 23.121 14.6272 23.402C14.789 23.683 14.8696 24.1041 14.8696 24.6853V25.248C14.8696 25.6288 14.8696 25.8893 14.9102 26.0103C14.9509 26.2305 15.0514 26.3905 15.2132 26.4917V26.692H13.3539C13.2933 26.5115 13.2526 26.3707 13.2334 26.2503C13.1927 26.0302 13.1721 25.7895 13.1721 25.5482L13.1521 24.7667C13.1521 24.2443 13.0509 23.8833 12.8691 23.7226C12.688 23.5421 12.3443 23.4423 11.8388 23.4423H10.0807V26.692H8.42383V18.4067H12.4249C12.9903 18.4265 13.4351 18.4867 13.7381 18.6275ZM10.0807 19.8507V22.0783H12.0206C12.4042 22.0783 12.688 22.0373 12.8691 21.9374C13.2127 21.7768 13.3745 21.4759 13.3745 21.0144C13.3745 20.5132 13.2127 20.1721 12.8897 19.9916C12.7072 19.9116 12.4249 19.8507 12.0606 19.8507H10.0807Z" fill="#1D1C19"/>
<path fill-rule="evenodd" clip-rule="evenodd" d="M26.7869 23.9229C26.8275 24.3044 26.928 24.5847 27.0899 24.7652C27.3729 25.1064 27.8378 25.2869 28.5044 25.2869C28.9086 25.2869 29.2316 25.2268 29.474 25.1468C29.9595 24.9656 30.2012 24.6449 30.2012 24.1834C30.2012 23.9031 30.0807 23.7021 29.8383 23.5414C29.5952 23.4005 29.2316 23.2809 28.7268 23.1606L27.8777 22.9595C27.0293 22.779 26.4432 22.5589 26.1203 22.338C25.5742 21.9565 25.2918 21.3549 25.2918 20.5323C25.2918 19.7898 25.5542 19.1683 26.0796 18.687C26.625 18.2056 27.3929 17.9445 28.4231 17.9445C29.2722 17.9445 30.0194 18.1851 30.6054 18.6466C31.2121 19.1082 31.5351 19.77 31.5757 20.6527H29.9388C29.8989 20.1713 29.6964 19.8097 29.2922 19.5895C29.0298 19.4487 28.7061 19.3885 28.3026 19.3885C27.8777 19.3885 27.5141 19.4897 27.2517 19.6497C26.9886 19.8308 26.8674 20.0913 26.8674 20.412C26.8674 20.7128 26.9886 20.9337 27.2517 21.0738C27.4129 21.1737 27.7765 21.2947 28.3226 21.415L29.7164 21.7562C30.3224 21.9162 30.7879 22.1172 31.1109 22.3579C31.5957 22.7592 31.8381 23.3212 31.8381 24.0631C31.8381 24.8056 31.5558 25.4469 30.9697 25.9488C30.4037 26.4506 29.6152 26.6913 28.565 26.6913C27.5141 26.6913 26.6856 26.4506 26.0796 25.9488C25.4736 25.4681 25.1699 24.7858 25.1699 23.9229H26.7869Z" fill="#1D1C19"/>
<path fill-rule="evenodd" clip-rule="evenodd" d="M39.2071 19.8707H34.903V21.636H38.8434V23.0807H34.903V25.2078H39.4088V26.6921H33.2461V18.4061H39.2071V19.8707Z" fill="#1D1C19"/>
<path fill-rule="evenodd" clip-rule="evenodd" d="M46.1976 20.7735C46.0558 20.2114 45.7527 19.8101 45.248 19.5899C44.9649 19.4689 44.6619 19.4087 44.3183 19.4087C43.6723 19.4087 43.1262 19.6494 42.702 20.1711C42.2778 20.6729 42.0754 21.4148 42.0754 22.4383C42.0754 23.4618 42.2978 24.1832 42.7626 24.605C43.2068 25.0262 43.7322 25.2272 44.3183 25.2272C44.8844 25.2272 45.3492 25.0658 45.7128 24.7452C46.0764 24.4047 46.2982 23.963 46.3794 23.4215H44.5001V22.0376H47.8944V26.4702H46.7637L46.6012 25.4474C46.2582 25.8289 45.9752 26.1099 45.7128 26.2699C45.2679 26.5509 44.7026 26.691 44.0559 26.691C42.9844 26.691 42.0953 26.3102 41.4087 25.5472C40.7015 24.7855 40.3379 23.7428 40.3379 22.4178C40.3379 21.0736 40.7015 20.0111 41.4287 19.1886C42.136 18.3859 43.1063 17.9846 44.2983 17.9846C45.3285 17.9846 46.157 18.2457 46.7837 18.7872C47.4096 19.3082 47.7739 19.9708 47.8545 20.7735H46.1976Z" fill="#1D1C19"/>
<path fill-rule="evenodd" clip-rule="evenodd" d="M49.6211 18.1855H51.3386V23.2805C51.3386 23.8631 51.3992 24.2637 51.5411 24.5242C51.7428 25.0062 52.1877 25.2271 52.8743 25.2271C53.5815 25.2271 54.0257 25.0062 54.2282 24.5242C54.3494 24.2637 54.4299 23.8631 54.4299 23.2805V18.1855H56.1474V23.2805C56.1474 24.1632 56.0063 24.8456 55.7432 25.3474C55.2384 26.2499 54.2888 26.6909 52.8743 26.6909C51.4798 26.6909 50.5101 26.2499 50.0054 25.3474C49.7423 24.8456 49.6211 24.1632 49.6211 23.2805V18.1855Z" fill="#1D1C19"/>
<path fill-rule="evenodd" clip-rule="evenodd" d="M59.5306 19.8507V22.0783H61.4499C61.8342 22.0783 62.1172 22.0373 62.319 21.9374C62.6619 21.7768 62.8244 21.4759 62.8244 21.0144C62.8244 20.5132 62.6619 20.1721 62.3389 19.9916C62.1372 19.9116 61.8741 19.8507 61.5105 19.8507H59.5306ZM63.1674 18.6275C63.4704 18.7677 63.7335 18.9482 63.9552 19.2094C64.137 19.409 64.2789 19.6504 64.3801 19.9116C64.4806 20.1516 64.5213 20.4531 64.5213 20.7744C64.5213 21.1751 64.4207 21.5559 64.2382 21.9374C64.0365 22.3183 63.7135 22.5794 63.2686 22.7401C63.6522 22.9001 63.9153 23.121 64.0564 23.402C64.2183 23.6823 64.2995 24.1041 64.2995 24.6853V25.248C64.2995 25.6288 64.3195 25.8893 64.3395 26.0103C64.3801 26.2305 64.5013 26.3905 64.6624 26.4917V26.692H62.7838C62.7232 26.5115 62.7032 26.3707 62.6826 26.2503C62.622 26.0302 62.6013 25.7895 62.6013 25.5482L62.5813 24.766C62.5813 24.2443 62.4808 23.8833 62.299 23.7226C62.1172 23.5421 61.7729 23.4423 61.2881 23.4423H59.5306V26.692H57.873V18.4067H61.8541C62.4202 18.4265 62.8644 18.4867 63.1674 18.6275Z" fill="#1D1C19"/>
<path fill-rule="evenodd" clip-rule="evenodd" d="M22.0371 24.4644C22.4207 23.9632 22.6232 23.2406 22.6232 22.2977C22.6232 21.3747 22.4207 20.6527 22.0371 20.1508C21.6329 19.6497 21.1075 19.3885 20.4408 19.3885C19.7536 19.3885 19.2281 19.6298 18.8239 20.1508C18.4203 20.6527 18.2179 21.3747 18.2179 22.2977C18.2179 23.2406 18.4203 23.9632 18.8239 24.4644C19.2281 24.9656 19.7536 25.2268 20.4408 25.2268C21.1075 25.2268 21.6329 24.9656 22.0371 24.4644ZM23.108 25.7286C22.4813 26.3706 21.5923 26.6913 20.4408 26.6913C19.2681 26.6913 18.3797 26.3706 17.7737 25.7286C16.9446 24.9259 16.541 23.7827 16.541 22.2977C16.541 20.7935 16.9446 19.6497 17.7737 18.8873C18.3797 18.2453 19.2681 17.9246 20.4408 17.9246C21.5923 17.9246 22.4813 18.2453 23.108 18.8873C23.9165 19.6497 24.32 20.7935 24.32 22.2977C24.32 23.7827 23.9165 24.9259 23.108 25.7286Z" fill="#1D1C19"/>
</svg>
