<svg width="71" height="14" viewBox="0 0 71 14" fill="none" xmlns="http://www.w3.org/2000/svg">
<g clip-path="url(#clip0_83_1072)">
<path d="M9.31935 6.85642C9.30204 6.38663 9.17215 5.92589 8.94701 5.51031L6.91207 1.84239C6.7562 1.56233 6.65229 1.2642 6.59168 0.947998L6.50508 1.10158C6.00284 2.01404 6.00284 3.13429 6.50508 4.04676L8.13303 6.99193C8.63527 7.90439 8.63527 9.02464 8.13303 9.93711L8.04644 10.0907C7.98582 9.77449 7.88191 9.47636 7.72604 9.20533L6.23665 6.50408L5.28412 4.78757C5.12826 4.5075 5.02434 4.20937 4.96373 3.90221L4.87714 4.05579C4.3749 4.95922 4.3749 6.07947 4.86848 6.99193L6.50508 9.93711C7.00732 10.8496 7.00732 11.9698 6.50508 12.8823L6.41849 13.0359C6.35788 12.7197 6.24531 12.4215 6.0981 12.1505L4.06316 8.46452C3.79472 7.97667 3.66483 7.42558 3.69081 6.86545C1.50867 7.45268 0.00195312 8.71748 0.00195312 10.181C0.00195312 12.2137 2.91148 13.858 6.50508 13.858C10.0987 13.858 13.0082 12.2137 13.0082 10.181C13.0082 8.71748 11.5015 7.45268 9.31935 6.85642ZM15.4588 13.1443C15.4761 12.7016 15.554 12.268 15.6926 11.8614C16.394 12.1866 17.156 12.3493 17.9267 12.3583C19.0611 12.3583 19.6932 11.9789 19.6932 11.22C19.6932 10.4611 19.2256 10.1359 18.0826 9.61187L17.4591 9.33181C16.3074 8.80782 15.5281 8.13025 15.5281 6.78414C15.5281 5.32962 16.4893 4.39909 18.4722 4.39909C19.2342 4.39006 19.9876 4.51654 20.7063 4.7695C20.6803 5.20314 20.5938 5.62775 20.4639 6.04333C19.8231 5.80844 19.1477 5.68196 18.4636 5.67293C17.3985 5.67293 16.9136 6.10657 16.9136 6.78414C16.9136 7.46171 17.3898 7.83212 18.2471 8.21156L18.9052 8.50066C20.4552 9.18726 21.1047 9.91904 21.1047 11.1567C21.1047 12.6203 20.0396 13.6321 17.97 13.6321C16.9655 13.6321 16.1429 13.4785 15.4588 13.1443ZM27.6684 7.05517V13.4243H26.4388L26.3695 12.6564C26.0231 13.2165 25.5036 13.5689 24.6463 13.5689C23.0357 13.5689 21.9619 12.3493 21.9619 10.2081C21.9619 7.96763 23.1136 6.6938 25.3737 6.6938C26.2396 6.6938 26.9583 6.79318 27.6684 7.05517ZM26.3176 11.9698V7.96763C25.9972 7.91343 25.6768 7.88632 25.3564 7.89536C23.9622 7.89536 23.3214 8.78975 23.3214 10.2172C23.3214 11.5181 23.8237 12.4306 25.0187 12.4306C25.4863 12.4306 25.9452 12.268 26.3176 11.9698ZM34.5439 9.14209V13.4243H33.2017V9.38601C33.2017 8.38321 32.8813 7.89536 31.5391 7.89536C31.1841 7.90439 30.829 7.9315 30.474 7.99474V13.4243H29.1318V7.05517C29.9891 6.83835 30.9243 6.70283 31.5737 6.70283C33.8165 6.6938 34.5439 7.59723 34.5439 9.14209ZM38.2674 12.3764C38.6224 12.3764 38.9774 12.3131 39.3152 12.1866C39.2805 12.5661 39.2286 12.9997 39.1593 13.3701C38.7956 13.5147 38.4146 13.5779 38.0249 13.5689C36.7174 13.5689 35.8861 12.9455 35.8861 11.3916V4.70626C36.319 4.57074 36.778 4.49847 37.2283 4.49847V6.91062H39.3498C39.3325 7.30813 39.2892 7.71467 39.2286 8.11218H37.2283V11.238C37.2283 12.0602 37.6179 12.3764 38.2674 12.3764ZM45.4719 7.04614V13.4153H44.2423L44.1644 12.6474C43.818 13.2075 43.2984 13.5599 42.4412 13.5599C40.8305 13.5599 39.7568 12.3402 39.7568 10.1991C39.7568 7.9586 40.9085 6.68477 43.1685 6.68477C44.0431 6.6938 44.7618 6.79318 45.4719 7.04614ZM44.1297 11.9698V7.96763C43.8093 7.91343 43.4889 7.88632 43.1685 7.89536C41.7744 7.89536 41.1249 8.78975 41.1249 10.2172C41.1249 11.5181 41.6272 12.4306 42.8222 12.4306C43.2984 12.4306 43.7574 12.268 44.1297 11.9698ZM52.3474 9.14209V13.4243H51.0052V9.38601C51.0052 8.38321 50.6848 7.89536 49.3426 7.89536C48.9876 7.90439 48.6326 7.9315 48.2862 7.99474V13.4243H46.9353V7.05517C47.7926 6.83835 48.7278 6.70283 49.3773 6.70283C51.6287 6.6938 52.3474 7.59723 52.3474 9.14209ZM59.1623 4.49847V13.4153H57.9326L57.8634 12.6022C57.517 13.1985 56.9974 13.5689 56.1142 13.5689C54.5036 13.5689 53.4298 12.3493 53.4298 10.2081C53.4298 7.96763 54.5815 6.6938 56.8329 6.6938C57.1706 6.6938 57.5083 6.72994 57.8374 6.79318V4.69722C58.253 4.54364 58.7293 4.49847 59.1623 4.49847ZM57.8374 11.9427V8.02184C57.4824 7.94053 57.1273 7.89536 56.7636 7.89536C55.4301 7.89536 54.798 8.76265 54.798 10.2172C54.798 11.5181 55.3002 12.4306 56.4952 12.4306C56.9801 12.4306 57.4564 12.2589 57.8374 11.9427ZM65.9252 10.696H61.6388C61.812 11.8343 62.4441 12.3764 63.6391 12.3764C64.3838 12.3764 65.1112 12.2137 65.7866 11.8885C65.7347 12.2589 65.6654 12.7468 65.5788 13.1623C64.964 13.4514 64.3232 13.5689 63.6045 13.5689C61.3531 13.5689 60.2706 12.2679 60.2706 10.0907C60.2706 8.19349 61.1106 6.68477 63.2494 6.68477C65.1631 6.68477 65.9944 7.99474 65.9944 9.60284C65.9944 9.97324 65.9685 10.3346 65.9252 10.696ZM61.6128 9.52153H64.6436C64.6436 8.47355 64.1067 7.86826 63.1802 7.86826C62.219 7.86826 61.7167 8.43742 61.6128 9.52153ZM70.6272 6.748C70.6272 7.15455 70.5925 7.55206 70.5059 7.94956C70.1682 7.91343 69.8305 7.89536 69.4928 7.89536C69.1637 7.89536 68.8347 7.92246 68.5056 7.96763V13.4243H67.1634V7.05517C67.735 6.85642 68.7048 6.70283 69.4582 6.70283C69.8392 6.6938 70.2375 6.71187 70.6272 6.748Z" fill="#EC0000"/>
</g>
<defs>
<clipPath id="clip0_83_1072">
<rect width="70.6252" height="12.91" fill="white" transform="translate(0.00195312 0.947998)"/>
</clipPath>
</defs>
</svg>
