<svg width="74" height="17" viewBox="0 0 74 17" fill="none" xmlns="http://www.w3.org/2000/svg">
<g clip-path="url(#clip0_83_1078)">
<path d="M7.75175 2.08475C10.2343 1.18503 13.0017 1.81893 14.8331 3.7206C14.9552 3.86374 15.1587 3.90463 15.3419 3.84329C15.4029 3.82284 15.4639 3.78194 15.5046 3.74105C15.6878 3.55701 15.7081 3.25029 15.525 3.06626C13.4291 0.89876 10.2547 0.162626 7.42617 1.18503C4.59768 2.22789 2.62384 4.84525 2.42035 7.85113C2.4 8.11696 2.60349 8.34189 2.86802 8.36233C2.92908 8.36233 3.01047 8.36233 3.07152 8.34188C3.25466 8.28054 3.37675 8.11695 3.37675 7.93292C3.55989 5.29511 5.26919 3.00491 7.75175 2.08475ZM3.13257 7.91247C3.13257 8.01471 3.07152 8.09651 2.96978 8.11695C2.92908 8.1374 2.90873 8.1374 2.86802 8.1374C2.74593 8.1374 2.64419 8.01471 2.64419 7.87158C2.84767 4.94749 4.76047 2.41192 7.48721 1.40996C10.2343 0.408004 13.307 1.12369 15.3215 3.22984C15.4232 3.33208 15.4029 3.47522 15.3215 3.57746C15.3012 3.59791 15.2605 3.61836 15.2401 3.63881C15.1587 3.6797 15.057 3.65925 14.9959 3.57746C13.1035 1.594 10.2343 0.919209 7.67035 1.85982C5.1064 2.80043 3.31571 5.17242 3.13257 7.91247Z" fill="#B12028"/>
<path d="M17.54 8.3827C17.4586 8.28046 17.3366 8.23956 17.2145 8.21912C17.1534 8.21912 17.0924 8.21912 17.0313 8.23956C16.8482 8.30091 16.7261 8.46449 16.7261 8.66898C16.604 11.3886 14.8743 13.7401 12.3307 14.6807C9.78715 15.6214 6.95866 14.9261 5.12727 12.9222C5.00518 12.7791 4.80169 12.7382 4.61855 12.7995C4.5575 12.82 4.49646 12.8608 4.45576 12.9017C4.35402 12.9835 4.31332 13.1062 4.29297 13.2289C4.29297 13.3516 4.33367 13.4743 4.41506 13.5765C6.51099 15.8667 9.74645 16.6642 12.6563 15.6009C15.5662 14.5376 17.54 11.8384 17.6621 8.73032C17.6621 8.60763 17.6214 8.48494 17.54 8.3827ZM12.5546 15.376C9.74645 16.3984 6.61273 15.6418 4.57785 13.413C4.49646 13.3107 4.49646 13.1676 4.5982 13.0653C4.61855 13.0449 4.65925 13.0244 4.6796 13.0244C4.76099 12.9835 4.86274 13.0244 4.94413 13.0858C6.83657 15.1715 9.7668 15.8872 12.4121 14.9261C15.0575 13.9651 16.8278 11.5113 16.9499 8.70987C16.9499 8.60763 17.011 8.52584 17.1127 8.50539C17.1331 8.48494 17.1738 8.48494 17.2145 8.48494C17.3366 8.48494 17.4383 8.60763 17.4383 8.73032C17.2755 11.7362 15.3831 14.3536 12.5546 15.376Z" fill="#B12028"/>
<path d="M12.3307 4.76345C12.4527 4.84524 12.6155 4.86569 12.758 4.80435C12.8597 4.76345 12.9411 4.70211 13.0022 4.59986C13.0632 4.49762 13.0836 4.35449 13.0632 4.2318C13.0429 4.10911 12.9615 4.00687 12.8597 3.92508C11.476 3.0458 9.78705 2.86177 8.26089 3.43432C6.71438 4.00687 5.5545 5.21331 5.06613 6.78782C5.02543 6.91051 5.04578 7.0332 5.08648 7.15589C5.14752 7.27857 5.24927 7.36037 5.37136 7.40126C5.47311 7.44216 5.57485 7.42171 5.67659 7.40126C5.81903 7.33992 5.92078 7.23768 5.96148 7.09454C6.36845 5.80631 7.32485 4.80435 8.58647 4.35449C9.82775 3.88418 11.1911 4.02732 12.3307 4.76345ZM5.71729 7.01275C5.69694 7.09454 5.6359 7.13544 5.57485 7.15589C5.53415 7.17633 5.47311 7.17633 5.41206 7.15589C5.28997 7.11499 5.20857 6.97185 5.24927 6.84916C5.71729 5.35645 6.83648 4.1909 8.30159 3.6388C9.7667 3.0867 11.3743 3.27073 12.6969 4.10911C12.7987 4.17045 12.8394 4.33404 12.7783 4.43628C12.758 4.47718 12.6969 4.51807 12.6562 4.53852C12.5952 4.55897 12.5138 4.55897 12.4527 4.51807C11.2522 3.76149 9.8074 3.5979 8.48473 4.08866C7.14171 4.59986 6.14462 5.66317 5.71729 7.01275Z" fill="#B12028"/>
<path d="M7.95579 13.229C9.19707 13.7606 10.5604 13.8015 11.8221 13.3517C13.0837 12.8814 14.1011 11.9612 14.7116 10.7547C14.8337 10.5094 14.7319 10.2231 14.5081 10.1209C14.386 10.0595 14.2436 10.0595 14.1215 10.1004C13.9994 10.1413 13.918 10.2231 13.8569 10.3458C13.3686 11.3273 12.5139 12.0839 11.4965 12.4724C10.4587 12.8405 9.33951 12.82 8.32207 12.3701C8.19998 12.3293 8.07788 12.3088 7.97614 12.3497C7.85405 12.3906 7.7523 12.4928 7.69126 12.6155C7.58951 12.8405 7.71161 13.1267 7.95579 13.229ZM7.91509 12.6973C7.93544 12.636 7.99649 12.5951 8.05754 12.5746C8.11858 12.5542 8.17963 12.5542 8.24067 12.5746C9.29881 13.0449 10.4994 13.0654 11.5779 12.6769C12.6767 12.2884 13.5517 11.4909 14.0808 10.448C14.1011 10.3867 14.1622 10.3458 14.2029 10.3253C14.2639 10.3049 14.325 10.3049 14.386 10.3458C14.5081 10.4071 14.5488 10.5503 14.4878 10.6729C13.918 11.818 12.9412 12.6973 11.7203 13.1472C10.5197 13.597 9.19707 13.5561 8.01684 13.0449C7.91509 12.9631 7.8744 12.82 7.91509 12.6973Z" fill="#B12028"/>
<path d="M20.1444 3.74097H19.7578V13.0244H20.1444V3.74097Z" fill="#002F87"/>
<path d="M28.1817 9.38466C28.1817 10.0595 28.0393 10.5502 27.7747 10.8774C27.5102 11.2045 27.0218 11.3477 26.3096 11.3477C25.9027 11.3477 25.5771 11.2863 25.3329 11.1841C25.0887 11.0819 24.9056 10.9183 24.7631 10.7342C24.6207 10.5502 24.5393 10.3457 24.4986 10.1003C24.4579 9.85497 24.4375 9.63004 24.4375 9.38466V3.74097H22.4434V9.38466C22.4434 10.632 22.7689 11.5317 23.4405 12.1247C24.112 12.7177 25.048 13.0244 26.2893 13.0244C27.4899 13.0244 28.4463 12.7177 29.1178 12.1247C29.8096 11.5317 30.1352 10.6116 30.1352 9.38466V3.74097H28.141V9.38466H28.1817Z" fill="#002F87"/>
<path d="M37.0741 9.83452H37.0538L33.2893 3.74097H31.3154V12.82H33.1672V6.74685H33.2079L36.952 12.82H38.9462V3.74097H37.0741V9.83452Z" fill="#002F87"/>
<path d="M42.1006 3.74097H40.1064V12.82H42.1006V3.74097Z" fill="#002F87"/>
<path d="M48.9989 7.52388H45.2344V5.41772H49.5891V3.74097H43.2402V12.82H45.2344V9.07794H48.9989V7.52388Z" fill="#002F87"/>
<path d="M51.8483 3.74097L48.4297 12.82H50.4239L51.1361 10.7956H54.514L55.2058 12.82H57.2611L53.8832 3.74097H51.8483ZM51.6652 9.32332L52.8454 5.99027H52.8657L54.0053 9.32332H51.6652Z" fill="#002F87"/>
<path d="M62.5517 10.7957C62.2058 11.1638 61.7378 11.3478 61.1273 11.3478C60.6796 11.3478 60.293 11.266 59.9878 11.082C59.6825 10.9184 59.418 10.673 59.2348 10.3868C59.0314 10.1005 58.9093 9.77331 58.8075 9.40525C58.7261 9.03718 58.6651 8.66911 58.6651 8.30105C58.6651 7.91253 58.7058 7.52402 58.8075 7.1355C58.8889 6.76743 59.0314 6.44026 59.2348 6.13354C59.4383 5.84727 59.6825 5.60189 59.9878 5.4383C60.293 5.27472 60.6796 5.17248 61.1273 5.17248C61.3715 5.17248 61.6157 5.21337 61.8192 5.29517C62.043 5.37696 62.2465 5.4792 62.4296 5.62234C62.6128 5.76547 62.7552 5.92906 62.8773 6.13354C62.9994 6.31757 63.0808 6.5425 63.1011 6.76743H65.0139C64.9529 6.23578 64.8104 5.78592 64.5866 5.37696C64.3627 4.968 64.0779 4.62038 63.7116 4.35455C63.3657 4.08872 62.9587 3.86379 62.5314 3.72066C62.0837 3.57752 61.6157 3.49573 61.1273 3.49573C60.4354 3.49573 59.8046 3.61842 59.2552 3.86379C58.7058 4.10917 58.2378 4.45679 57.8511 4.8862C57.4645 5.31561 57.1796 5.82682 56.9761 6.39937C56.7726 6.97192 56.6709 7.60581 56.6709 8.2806C56.6709 8.93494 56.7726 9.54839 56.9761 10.1209C57.1796 10.6935 57.4645 11.1842 57.8511 11.6136C58.2378 12.0431 58.7058 12.3702 59.2552 12.6156C59.8046 12.861 60.4354 12.9837 61.1273 12.9837C61.6767 12.9837 62.1854 12.9019 62.6534 12.7383C63.1215 12.5747 63.5284 12.3293 63.8744 12.0022C64.2203 11.675 64.5052 11.2865 64.7087 10.8366C64.9122 10.3868 65.0546 9.87556 65.0953 9.30301H63.1825C63.1011 9.9369 62.8773 10.4277 62.5517 10.7957Z" fill="#002F87"/>
<path d="M72.9489 8.87353C72.7251 8.54636 72.4809 8.28054 72.1757 8.0965C71.8704 7.89202 71.5856 7.76933 71.2803 7.66709C70.9751 7.5853 70.7513 7.52395 70.5885 7.48306C70.0187 7.33992 69.571 7.21723 69.2251 7.13544C68.8792 7.0332 68.5943 6.95141 68.4112 6.84916C68.2077 6.74692 68.0856 6.64468 68.0042 6.54244C67.9431 6.4402 67.9024 6.29706 67.9024 6.11303C67.9024 5.90855 67.9431 5.76541 68.0245 5.62227C68.1059 5.47914 68.2077 5.39734 68.3501 5.2951C68.4722 5.21331 68.635 5.15197 68.7774 5.11107C68.9402 5.07017 69.103 5.07017 69.2658 5.07017C69.51 5.07017 69.7338 5.09062 69.9373 5.13152C70.1408 5.17241 70.3239 5.25421 70.4867 5.35645C70.6495 5.45869 70.7716 5.60183 70.8734 5.76541C70.9751 5.94945 71.0361 6.17437 71.0361 6.4402V6.78782H72.9489V6.4402C72.9489 5.90855 72.8472 5.45869 72.6437 5.09062C72.4402 4.72256 72.1757 4.41583 71.8501 4.1909C71.5042 3.94552 71.1175 3.78194 70.6902 3.6797C70.2629 3.57746 69.7949 3.51611 69.3268 3.51611C68.9199 3.51611 68.5129 3.57746 68.1059 3.6797C67.6989 3.78194 67.3327 3.96597 67.0274 4.1909C66.7019 4.41583 66.4577 4.70211 66.2542 5.04973C66.0507 5.39734 65.9489 5.80631 65.9489 6.25617C65.9489 6.66513 66.0303 7.0332 66.1931 7.31947C66.3559 7.60575 66.5594 7.85112 66.8036 8.05561C67.0478 8.26009 67.353 8.40323 67.6582 8.52591C67.9838 8.6486 68.3094 8.75084 68.635 8.83264C68.9606 8.93488 69.2861 9.01667 69.6117 9.07801C69.9373 9.15981 70.2222 9.2416 70.4664 9.34384C70.7106 9.44608 70.9141 9.56877 71.0768 9.73236C71.2396 9.87549 71.321 10.08 71.321 10.3254C71.321 10.5503 71.26 10.7343 71.1379 10.8979C71.0158 11.041 70.8734 11.1637 70.6902 11.2455C70.5071 11.3273 70.3239 11.3887 70.1204 11.4091C69.917 11.4296 69.7338 11.45 69.5507 11.45C69.2862 11.45 69.042 11.4091 68.7978 11.3478C68.5536 11.2864 68.3501 11.1842 68.167 11.0615C67.9838 10.9388 67.8414 10.7548 67.7396 10.5503C67.6379 10.3458 67.5768 10.08 67.5768 9.77325V9.2825H65.6641V9.77325C65.6641 10.3254 65.7658 10.8161 65.9693 11.2251C66.1728 11.634 66.4577 11.9612 66.8239 12.227C67.1902 12.4929 67.5972 12.6769 68.0652 12.7996C68.5332 12.9223 69.0216 12.9836 69.51 12.9836C70.1204 12.9836 70.6699 12.9018 71.1379 12.7587C71.6059 12.6155 71.9925 12.4111 72.3181 12.1452C72.6437 11.8794 72.8675 11.5727 73.0303 11.2251C73.1931 10.8775 73.2745 10.4889 73.2745 10.0595C73.2745 9.60967 73.1524 9.2007 72.9489 8.87353Z" fill="#002F87"/>
<path d="M5.65616 12.3703C5.59511 12.3294 5.51372 12.2681 5.45267 12.1658C5.39162 12.084 5.37128 12.0227 5.31023 12.0431C5.24918 12.0636 5.26953 12.1658 5.28988 12.2272C5.31023 12.2885 5.45267 12.6566 5.45267 12.6566C5.45267 12.6566 5.49337 12.7793 5.55441 12.7588C5.61546 12.7384 5.59511 12.677 5.59511 12.6566C5.59511 12.6361 5.61546 12.6157 5.63581 12.6157C5.69686 12.6361 5.88 12.6566 5.96139 12.6157L5.90034 12.4521C5.90034 12.4521 5.7579 12.4521 5.65616 12.3703Z" fill="#002F87"/>
<path d="M8.9727 10.7957C8.89131 10.8161 8.95235 11.0002 8.91166 11.1024C8.87096 11.266 8.72852 11.3478 8.72852 11.3478L8.78956 11.5114L9.23724 11.3478L9.0541 10.8366C9.0541 10.8366 9.03375 10.7752 8.9727 10.7957Z" fill="#002F87"/>
<path d="M16.0541 8.64878C16.0337 8.62834 15.7082 8.26027 15.5861 8.11713C15.7082 7.99444 15.7896 7.81041 15.6878 7.54458C15.464 6.95159 14.8535 7.27876 14.8535 7.27876L14.8942 7.381C14.9553 7.381 15.0977 7.31965 15.1587 7.48324C15.1994 7.58548 15.3012 7.87175 15.3419 7.97399C15.3826 8.07624 15.2401 8.19892 15.1994 8.21937L15.2401 8.34206C15.2401 8.34206 15.7082 8.87371 15.7285 8.91461C15.7896 8.97595 15.8303 8.95551 15.8303 8.95551L16.1558 8.83282C16.1965 8.81237 16.2372 8.77147 16.1965 8.71013C16.1762 8.62834 16.0948 8.71013 16.0541 8.64878Z" fill="#002F87"/>
<path d="M2.76631 9.40523C2.76631 9.40523 2.72561 9.28254 2.82735 9.20075C2.8884 9.13941 2.82735 9.01672 2.72561 9.05761L2.46107 9.15986C2.35933 9.20075 2.35933 9.32344 2.46107 9.32344C2.52212 9.32344 2.58317 9.34389 2.62386 9.44613L2.99014 10.4685C2.99014 10.4685 3.09189 10.7139 2.8477 10.8775L2.90875 11.0411C2.9698 11.0206 3.27503 10.7957 3.15294 10.4685L2.76631 9.40523Z" fill="#002F87"/>
<path d="M2.56252 10.7958L2.11485 9.56893C2.11485 9.56893 2.0945 9.50759 2.1352 9.46669C2.19624 9.44624 2.17589 9.28266 2.03345 9.32355L1.52473 9.50759C1.52473 9.50759 1.46369 9.52803 1.46369 9.56893C1.44334 9.60983 1.46369 9.67117 1.52473 9.69162C1.56543 9.69162 1.58578 9.69162 1.60613 9.75296L2.03345 10.939C2.0945 11.123 2.27764 11.1843 2.44043 11.1843C2.64392 11.2048 2.82706 11.1025 2.82706 11.1025L2.76601 10.939C2.60322 10.939 2.56252 10.7958 2.56252 10.7958Z" fill="#002F87"/>
<path d="M3.92655 10.4683C3.9062 10.4683 3.82481 10.407 3.80446 10.3456L3.53993 9.58907L3.27539 9.36414L3.66202 10.407C3.66202 10.407 3.70272 10.5297 3.62132 10.6115C3.56027 10.6728 3.60097 10.7955 3.72306 10.7546L4.00795 10.6524C4.00795 10.6524 4.08934 10.6319 4.06899 10.5501C4.0283 10.4683 3.9876 10.4683 3.92655 10.4683Z" fill="#002F87"/>
<path d="M4.04821 8.77133C4.06856 8.77133 4.14995 8.83268 4.1703 8.89402L4.33309 9.34388L4.57728 9.56881L4.31274 8.83268C4.31274 8.83268 4.27205 8.70999 4.35344 8.64864C4.41449 8.5873 4.35344 8.46461 4.2517 8.48506L3.98716 8.60775C3.98716 8.60775 3.90577 8.6282 3.92612 8.70999C3.94647 8.77133 4.00751 8.75089 4.04821 8.77133Z" fill="#002F87"/>
<path d="M3.6011 8.73035L3.05168 8.91438C3.05168 8.91438 2.99064 8.93483 2.97029 8.95528C2.94994 8.99617 2.94994 9.05752 3.03134 9.07796C3.07203 9.09841 3.11273 9.07797 3.17378 9.13931L4.5168 10.4071L4.84238 10.2844L4.61854 9.69141L3.6011 8.73035Z" fill="#002F87"/>
<path d="M5.75786 9.81419C5.69681 9.81419 5.67646 9.75285 5.67646 9.75285L5.20844 8.44417C5.20844 8.44417 5.16774 8.36237 5.20844 8.34193C5.26948 8.30103 5.24914 8.13744 5.10669 8.19879L4.59797 8.38282C4.59797 8.38282 4.53693 8.40327 4.53693 8.44417C4.51658 8.48506 4.53693 8.56686 4.59797 8.56686C4.63867 8.56686 4.65902 8.56686 4.67937 8.6282L5.14739 9.93688C5.18809 10.0187 5.14739 10.0187 5.12704 10.0596C5.08635 10.1209 5.12704 10.1823 5.14739 10.2027C5.18809 10.2232 5.22879 10.2027 5.22879 10.2027L5.73751 10.0187C5.92065 9.93688 5.8596 9.79375 5.75786 9.81419Z" fill="#002F87"/>
<path d="M10.8036 6.09254C10.7426 6.11299 10.7629 6.17433 10.7629 6.19478C10.7629 6.21523 10.7426 6.23568 10.7222 6.21523C10.6612 6.19478 10.5187 6.19478 10.417 6.21523L10.478 6.35837C10.478 6.35837 10.6001 6.35837 10.6815 6.39926C10.7222 6.41971 10.8036 6.48106 10.8647 6.5833C10.9257 6.66509 10.9461 6.72643 11.0275 6.70599C11.0885 6.68554 11.0682 6.5833 11.0478 6.52195C11.0275 6.46061 10.9054 6.15389 10.9054 6.15389C10.9054 6.15389 10.885 6.05165 10.8036 6.09254Z" fill="#002F87"/>
<path d="M10.621 8.15775C10.682 8.1782 10.8652 8.1782 10.9466 8.15775L10.8855 7.99416C10.8855 7.99416 10.7431 7.99416 10.6414 7.93282C10.5803 7.89192 10.4989 7.83058 10.4379 7.72834C10.3768 7.64654 10.3565 7.5852 10.2751 7.60565C10.214 7.6261 10.2344 7.72834 10.2547 7.78968C10.2751 7.85103 10.4175 8.21909 10.4175 8.21909C10.4175 8.21909 10.4582 8.34178 10.5193 8.32133C10.5803 8.30089 10.56 8.23954 10.56 8.21909C10.6007 8.15775 10.6007 8.1373 10.621 8.15775Z" fill="#002F87"/>
<path d="M10.3564 7.42183C10.5192 7.50363 10.7227 7.48318 10.8245 7.52407C10.9262 7.54452 11.0483 7.56497 11.089 7.68766C11.15 7.87169 10.9872 7.95349 10.9872 7.95349L11.0483 8.11707C11.2518 8.05573 11.557 7.749 11.4146 7.29914C11.2925 6.97197 11.15 6.95153 11.0279 6.89018C10.8651 6.82884 10.621 6.80839 10.5192 6.78794C10.4175 6.76749 10.3564 6.7266 10.3157 6.62435C10.275 6.48122 10.3971 6.39943 10.3971 6.39943L10.3361 6.23584C10.0105 6.35853 9.90875 6.70615 10.0105 6.99242C10.0919 7.21735 10.1529 7.31959 10.3564 7.42183Z" fill="#002F87"/>
<path d="M11.1908 6.15414C11.2315 6.17459 11.2518 6.15414 11.2722 6.23594L11.7402 7.54462C11.7809 7.62641 11.7402 7.62641 11.7198 7.66731C11.6791 7.7082 11.7198 7.79 11.7402 7.81044C11.7809 7.83089 11.8216 7.81044 11.8216 7.81044L12.3303 7.62641C12.4727 7.58552 12.4117 7.44238 12.3303 7.46283C12.2693 7.44238 12.2489 7.38103 12.2489 7.38103L11.7809 6.07235C11.7809 6.07235 11.7402 5.99056 11.8012 5.97011C11.8623 5.92921 11.8419 5.78608 11.6995 5.82697L11.1908 6.01101C11.1908 6.01101 11.1297 6.03145 11.1094 6.0519C11.1094 6.07235 11.1297 6.15414 11.1908 6.15414Z" fill="#002F87"/>
<path d="M7.62965 9.28242C7.67035 9.30287 7.71105 9.28242 7.71105 9.28242L8.24012 9.09839L7.58896 7.29895L7.08024 7.48298C7.08024 7.48298 7.01919 7.50343 6.99884 7.52388C6.97849 7.56478 6.99884 7.64657 7.05989 7.64657C7.10059 7.64657 7.12093 7.64657 7.14128 7.70791L7.60931 9.0166C7.62965 9.07794 7.60931 9.09839 7.58896 9.11884C7.56861 9.18018 7.58896 9.26197 7.62965 9.28242Z" fill="#002F87"/>
<path d="M8.01585 7.50338C8.1176 7.56473 8.17864 7.74876 8.28039 7.70787C8.34143 7.68742 8.32108 7.62607 8.32108 7.62607L8.13794 7.11487L7.66992 7.27845L7.73097 7.44204C7.73097 7.44204 7.89376 7.42159 8.01585 7.50338Z" fill="#002F87"/>
<path d="M8.34171 8.46452C8.40275 8.44407 8.3824 8.38272 8.3824 8.38272L8.15857 7.74883C8.15857 7.74883 8.13822 7.70793 8.07717 7.72838C8.03647 7.74883 8.01612 7.78973 8.03647 7.85107C8.07717 8.05555 7.95508 8.076 7.95508 8.076L8.03647 8.26003C8.03647 8.26003 8.13822 8.21914 8.23996 8.38272C8.26031 8.44407 8.28066 8.48496 8.34171 8.46452Z" fill="#002F87"/>
<path d="M8.76914 8.89404L8.58601 8.38284C8.58601 8.38284 8.56566 8.32149 8.50461 8.34194C8.42321 8.36239 8.46391 8.54642 8.42321 8.66911C8.36217 8.8327 8.21973 8.91449 8.21973 8.91449L8.28077 9.07807L8.76914 8.89404Z" fill="#002F87"/>
<path d="M11.9842 5.72469C11.9638 5.76558 11.9842 5.84737 12.0452 5.84737C12.0859 5.86782 12.1063 5.84737 12.1266 5.90872L12.5947 7.2174C12.6354 7.2992 12.5947 7.29919 12.5743 7.34009C12.5336 7.38099 12.5743 7.46278 12.5947 7.48323C12.6354 7.50368 12.6761 7.48323 12.6761 7.48323L13.1848 7.29919L12.5336 5.49976L12.0249 5.68379C12.0656 5.66334 12.0045 5.68379 11.9842 5.72469Z" fill="#002F87"/>
<path d="M13.0225 5.7039C13.0836 5.86749 13.3685 6.64452 13.4295 6.849C13.4906 6.99214 13.3074 7.15572 13.2667 7.17617L13.3074 7.27841C13.5923 7.17617 13.633 7.01259 13.6737 6.91035C13.7144 6.82855 13.7958 6.50138 13.6737 6.13332C13.5516 5.76525 13.3481 5.56077 13.1243 5.45853C12.9004 5.35629 12.6562 5.45853 12.6562 5.45853L12.6969 5.54032C12.7376 5.54032 12.9615 5.54032 13.0225 5.7039Z" fill="#002F87"/>
<path d="M14.8537 4.82504C14.8944 4.84548 14.9147 4.82504 14.9351 4.88638L15.4031 6.19506C15.4438 6.27686 15.4031 6.27686 15.3828 6.31775C15.3421 6.35865 15.3828 6.44044 15.4031 6.46089C15.4438 6.48134 15.4845 6.46089 15.4845 6.46089L15.9932 6.27686L15.3421 4.47742L14.8333 4.66145C14.8333 4.66145 14.7723 4.6819 14.752 4.70235C14.7723 4.74324 14.7723 4.82504 14.8537 4.82504Z" fill="#002F87"/>
<path d="M15.9124 4.45694C15.6682 4.3547 15.4443 4.45694 15.4443 4.45694L15.4647 4.55918C15.5257 4.55918 15.7496 4.55918 15.8106 4.70232C15.8717 4.88635 16.1565 5.64293 16.2176 5.86786C16.2583 6.011 16.0955 6.17459 16.0344 6.17459L16.0751 6.27683C16.36 6.17459 16.4007 6.011 16.4414 5.90876C16.4821 5.82697 16.5839 5.4998 16.4414 5.13173C16.3397 4.74321 16.1362 4.53873 15.9124 4.45694Z" fill="#002F87"/>
<path d="M14.345 6.21548L14.1212 6.29728L14.1415 6.46086L14.4467 6.35862L14.5485 6.52221C14.5892 6.604 14.5688 6.604 14.5485 6.62445C14.5078 6.68579 14.5281 6.74714 14.5688 6.76758C14.6095 6.78803 14.6502 6.76758 14.6502 6.76758L15.159 6.58355C15.3014 6.54265 15.2403 6.39952 15.159 6.39952C15.0979 6.37907 15.0776 6.33817 15.0776 6.33817L14.2026 4.88635L13.7549 5.04994L13.7752 5.27487L14.345 6.21548Z" fill="#002F87"/>
<path d="M14.2838 6.80832C14.2635 6.74698 14.2228 6.76743 14.1617 6.74698C14.1414 6.74698 14.1007 6.72653 14.0803 6.62429L13.9582 5.68367L13.7955 5.41785C13.7955 5.41785 13.9175 6.66519 13.9175 6.72653C13.9175 6.76743 13.8972 6.80832 13.8565 6.82877C13.8158 6.86967 13.7751 6.89012 13.7955 6.95146C13.8158 6.99236 13.8565 7.0128 13.9175 6.99236L14.2228 6.89012C14.2228 6.91056 14.3042 6.89012 14.2838 6.80832Z" fill="#002F87"/>
<path d="M6.87691 9.36442L6.10365 8.11708C6.06296 8.03528 6.10365 8.03528 6.124 7.99439C6.1647 7.93304 6.124 7.8717 6.10365 7.85125C6.08331 7.8308 6.02226 7.85125 6.02226 7.85125L5.51354 8.03528C5.3711 8.09663 5.43214 8.21932 5.53389 8.21932C5.59493 8.21932 5.61528 8.28066 5.61528 8.28066L6.49028 9.71203L6.93796 9.54845L6.87691 9.36442Z" fill="#002F87"/>
<path d="M6.38819 7.81016C6.40854 7.8715 6.44924 7.85106 6.51028 7.8715C6.53063 7.8715 6.57133 7.89195 6.59168 7.99419L6.71377 8.91436L6.87656 9.20064L6.75447 8.03509C6.75447 8.03509 6.75447 7.93285 6.75447 7.89195C6.75447 7.85106 6.75447 7.81016 6.79517 7.76926C6.83587 7.72837 6.89691 7.70792 6.87656 7.64657C6.85621 7.60568 6.81552 7.58523 6.75447 7.60568L6.44924 7.70792C6.42889 7.70792 6.34749 7.72837 6.38819 7.81016Z" fill="#002F87"/>
<path d="M8.99316 6.78791L9.03386 6.89015C9.07456 6.89015 9.23735 6.84926 9.27805 6.99239C9.2984 7.09463 9.42049 7.38091 9.46119 7.48315C9.50188 7.58539 9.37979 7.70808 9.31874 7.72853L9.35944 7.83077C9.35944 7.83077 9.82747 8.38287 9.84781 8.42376C9.90886 8.48511 9.94956 8.46466 9.94956 8.46466L10.2751 8.34197C10.3158 8.32152 10.3565 8.26018 10.3158 8.21928C10.2548 8.11704 10.1937 8.19883 10.153 8.15794C10.1327 8.13749 9.80712 7.76942 9.68502 7.62629C9.80712 7.5036 9.88851 7.31956 9.78677 7.05374C9.62398 6.46074 8.99316 6.78791 8.99316 6.78791Z" fill="#002F87"/>
<path d="M8.36265 7.17648C8.40334 7.17648 8.42369 7.17648 8.44404 7.23782L8.91206 8.5465C8.95276 8.6283 8.91206 8.6283 8.89171 8.66919C8.85102 8.73054 8.89171 8.79188 8.91206 8.81233C8.95276 8.83278 8.99346 8.81233 8.99346 8.81233L9.52253 8.6283C9.66497 8.56695 9.60392 8.44426 9.50218 8.44426C9.44113 8.42381 9.42078 8.38292 9.42078 8.38292L8.87137 6.82886L8.36265 7.01289C8.36265 7.01289 8.3016 7.03334 8.28125 7.05379C8.28125 7.09468 8.3016 7.17648 8.36265 7.17648Z" fill="#002F87"/>
<path d="M16.298 4.12947C16.298 4.12947 16.237 4.14992 16.2166 4.17036C16.1963 4.21126 16.2166 4.29305 16.2777 4.29305C16.3184 4.3135 16.3387 4.29305 16.3591 4.3544L16.8271 5.66308C16.8474 5.74487 16.8271 5.74487 16.8067 5.78577C16.766 5.82667 16.8067 5.90846 16.8271 5.92891C16.8678 5.94936 16.9085 5.92891 16.9085 5.92891L17.4375 5.74487L16.7864 3.94543L16.298 4.12947Z" fill="#002F87"/>
<path d="M17.2551 4.14993C17.3569 4.21127 17.4179 4.37486 17.5196 4.35441C17.5807 4.33396 17.5603 4.25217 17.5603 4.25217L17.3772 3.74097L16.9092 3.90455L16.9702 4.06814C16.9499 4.08859 17.1127 4.06814 17.2551 4.14993Z" fill="#002F87"/>
<path d="M17.3163 4.35451C17.2552 4.37496 17.2552 4.41586 17.2552 4.49765C17.2959 4.70213 17.1738 4.72258 17.1738 4.72258L17.2349 4.90662C17.2349 4.90662 17.3366 4.86572 17.4384 5.0293C17.4791 5.1111 17.4994 5.13155 17.5605 5.1111C17.6215 5.09065 17.6012 5.0293 17.6012 5.0293L17.3773 4.39541C17.3773 4.39541 17.357 4.33407 17.3163 4.35451Z" fill="#002F87"/>
<path d="M17.743 4.98825C17.6617 5.02914 17.7024 5.21318 17.6617 5.31542C17.6006 5.479 17.4785 5.56079 17.4785 5.56079L17.5396 5.72438L18.0076 5.56079L17.8244 5.04959C17.8244 5.02914 17.8041 4.9678 17.743 4.98825Z" fill="#002F87"/>
<path d="M5.69699 10.673C5.63595 10.6526 5.4935 10.6321 5.41211 10.673L5.47316 10.8162C5.47316 10.8162 5.59525 10.8162 5.67664 10.8775C5.71734 10.898 5.79874 10.9593 5.85978 11.0615C5.92083 11.1433 5.96153 11.2047 6.02257 11.1842C6.08362 11.1638 6.04292 11.0615 6.02257 11.0002C6.00222 10.9389 5.88013 10.6321 5.88013 10.6321C5.88013 10.6321 5.85978 10.5094 5.77839 10.5299C5.71734 10.5503 5.73769 10.6117 5.73769 10.6321C5.73769 10.6526 5.71734 10.673 5.69699 10.673Z" fill="#002F87"/>
<path d="M5.98194 11.3476C5.81915 11.2862 5.59531 11.2658 5.49357 11.2249C5.39182 11.2044 5.35112 11.1635 5.31043 11.0613C5.26973 10.9182 5.39182 10.8364 5.39182 10.8364L5.33078 10.6932C5.00519 10.8159 4.9238 11.1635 5.02554 11.4498C5.10694 11.6543 5.14764 11.7565 5.35112 11.8588C5.51391 11.9406 5.7174 11.9406 5.81915 11.961C5.92089 12.0019 6.04298 12.0019 6.08368 12.1451C6.14473 12.3291 5.98194 12.4109 5.98194 12.4109L6.04298 12.5745C6.24647 12.4927 6.53136 12.2064 6.36856 11.777C6.24647 11.4498 6.10403 11.4089 5.98194 11.3476Z" fill="#002F87"/>
<path d="M9.25713 9.60951C9.21644 9.52772 9.25713 9.52772 9.27748 9.48682C9.31818 9.42548 9.27748 9.36413 9.25713 9.34368C9.21644 9.32323 9.17574 9.34368 9.17574 9.34368L8.68737 9.52772C8.54493 9.56861 8.60597 9.71175 8.70772 9.6913C8.74841 9.71175 8.78911 9.77309 8.78911 9.77309L9.64376 11.2249L10.0711 11.0818L10.01 10.8568L9.25713 9.60951Z" fill="#002F87"/>
<path d="M9.94996 9.13949C9.92961 9.0986 9.88892 9.07815 9.84822 9.0986L9.56334 9.20084C9.56334 9.20084 9.48194 9.22129 9.50229 9.30308C9.52264 9.36442 9.56334 9.34398 9.62438 9.36442C9.64473 9.36442 9.68543 9.38487 9.70578 9.48711L9.82787 10.4073L9.99066 10.6936L9.84822 9.54846C9.84822 9.54846 9.84822 9.44622 9.84822 9.40532C9.84822 9.36442 9.84822 9.32353 9.88892 9.28263C9.92961 9.24173 9.99066 9.22129 9.94996 9.13949Z" fill="#002F87"/>
<path d="M11.8827 10.3662C11.9234 10.3867 11.9641 10.3662 11.9641 10.3662L12.4525 10.1822L11.8217 8.4032L11.3333 8.56678C11.3333 8.56678 11.2723 8.58723 11.2723 8.60768C11.2519 8.64858 11.2723 8.73037 11.3333 8.73037C11.374 8.73037 11.3944 8.73037 11.4147 8.79171L11.8827 10.1004C11.9234 10.1822 11.8827 10.1822 11.8624 10.2231C11.8217 10.2844 11.8624 10.3458 11.8827 10.3662Z" fill="#002F87"/>
<path d="M12.3305 8.38284C12.1066 8.2806 11.8828 8.3624 11.8828 8.3624L11.9032 8.46464C11.9642 8.46464 12.188 8.46464 12.2287 8.62822C12.2898 8.81226 12.5747 9.56884 12.6357 9.77332C12.6764 9.91646 12.5136 10.08 12.4729 10.08L12.4933 10.1823C12.7578 10.08 12.7985 9.91646 12.8392 9.83466C12.8799 9.75287 12.9613 9.4257 12.8189 9.05763C12.7375 8.68957 12.5543 8.48508 12.3305 8.38284Z" fill="#002F87"/>
<path d="M14.0802 9.5278L14.1209 9.63004C14.3244 9.54825 14.3854 9.38466 14.4261 9.28242C14.4668 9.20063 14.5482 8.85301 14.4058 8.48494C14.2837 8.11688 14.0802 7.91239 13.8564 7.7897C13.6325 7.68746 13.4697 7.76926 13.4697 7.76926L13.4901 7.85105C13.5511 7.85105 13.7139 7.89195 13.7546 8.03508C13.8157 8.21912 14.1005 8.99615 14.1819 9.22108C14.243 9.38466 14.1209 9.50735 14.0802 9.5278Z" fill="#002F87"/>
<path d="M13.3476 7.91236L13.3272 7.83057C13.3272 7.83057 13.1441 7.87146 13.0423 8.11684C12.9406 8.34177 12.9202 8.62805 13.0627 8.99611C13.2051 9.36418 13.4697 9.56866 13.5511 9.60956C13.6324 9.65045 13.7952 9.75269 13.9987 9.6709L13.958 9.56866C13.9173 9.58911 13.7342 9.54821 13.6935 9.40508C13.6121 9.18015 13.3272 8.40312 13.2662 8.21908C13.2051 8.07594 13.3069 7.95326 13.3476 7.91236Z" fill="#002F87"/>
<path d="M8.1793 9.87562C8.22 9.85518 8.22 9.69159 8.07756 9.73249L7.58918 9.91652C7.58918 9.91652 7.52814 9.93697 7.52814 9.95742C7.50779 9.99831 7.52814 10.0801 7.58918 10.0801C7.60953 10.0801 7.65023 10.0801 7.67058 10.1415L8.1386 11.4501C8.15895 11.5319 8.1386 11.5319 8.11825 11.5524C8.07756 11.6137 8.11825 11.6751 8.1386 11.6955C8.1793 11.716 8.22 11.6955 8.22 11.6955L8.70837 11.5319L8.15895 9.97787C8.15895 9.99831 8.1386 9.91652 8.1793 9.87562Z" fill="#002F87"/>
<path d="M7.89446 11.6748C7.85376 11.6544 7.81307 11.6135 7.81307 11.6135L6.93807 10.1821L6.51074 10.3457L6.53109 10.5706L7.10086 11.5113L6.85667 11.5931L6.87702 11.7566L7.18225 11.6544L7.284 11.818C7.32469 11.8998 7.30435 11.8998 7.284 11.9202C7.2433 11.9816 7.26365 12.0429 7.30435 12.0634C7.32469 12.0838 7.38574 12.0634 7.38574 12.0634L7.91481 11.8793C8.0369 11.7975 7.97586 11.6544 7.89446 11.6748Z" fill="#002F87"/>
<path d="M6.89685 12.0228C6.8765 12.0228 6.8358 12.0023 6.81545 11.9001L6.69336 10.9595L6.55092 10.7141C6.55092 10.7141 6.67301 11.9615 6.67301 12.0228C6.67301 12.0637 6.65266 12.1046 6.63231 12.125C6.59161 12.1659 6.53057 12.1864 6.55092 12.2477C6.57127 12.2886 6.61196 12.3091 6.67301 12.2886L6.97824 12.1864C6.97824 12.1864 7.05964 12.1659 7.03929 12.0841C6.99859 12.0228 6.95789 12.0432 6.89685 12.0228Z" fill="#002F87"/>
<path d="M15.383 8.95549C15.322 8.93505 15.3016 8.89415 15.3016 8.89415L14.7522 7.34009L14.2435 7.52412C14.2435 7.52412 14.1824 7.54457 14.1824 7.56502C14.1621 7.60591 14.1824 7.68771 14.2435 7.68771C14.2842 7.68771 14.3045 7.68771 14.3249 7.7695L14.7929 9.07818C14.8336 9.15997 14.7929 9.15997 14.7726 9.20087C14.7319 9.26222 14.7726 9.32356 14.7929 9.34401C14.8336 9.36446 14.8743 9.34401 14.8743 9.34401L15.383 9.15998C15.5458 9.07818 15.4848 8.93505 15.383 8.95549Z" fill="#002F87"/>
<path d="M11.5771 10.3459C11.516 10.3254 11.4957 10.2641 11.4957 10.2641L10.6207 8.81226L10.1934 8.97584L10.2137 9.20077L10.7631 10.1414L10.5393 10.2232L10.5596 10.4072L10.8649 10.305L10.9666 10.4686C11.0073 10.5503 10.987 10.5503 10.9666 10.5708C10.9259 10.6321 10.9463 10.673 10.987 10.7139C11.0277 10.7344 11.0684 10.7139 11.0684 10.7139L11.5771 10.5299C11.7195 10.4686 11.6585 10.3254 11.5771 10.3459Z" fill="#002F87"/>
<path d="M10.7028 10.7546C10.6824 10.6933 10.6214 10.7137 10.5807 10.6933C10.5603 10.6933 10.5196 10.6728 10.4993 10.5706L10.3772 9.62996L10.2144 9.36414C10.2144 9.36414 10.3365 10.6319 10.3365 10.6728C10.3365 10.7137 10.3161 10.7546 10.2754 10.7751C10.2347 10.816 10.194 10.8364 10.2144 10.9182C10.2347 10.9591 10.2754 10.9795 10.3161 10.9591L10.6214 10.8569C10.6417 10.8364 10.7231 10.816 10.7028 10.7546Z" fill="#002F87"/>
<path d="M5.04553 5.70392C5.08623 5.72437 5.12693 5.72437 5.16763 5.70392C5.20832 5.70392 5.22867 5.68347 5.26937 5.64258C5.28972 5.62213 5.33042 5.58123 5.35077 5.54034C5.37112 5.49944 5.39146 5.45854 5.41181 5.41765C5.43216 5.37675 5.43216 5.33585 5.41181 5.29496C5.41181 5.25406 5.39146 5.21317 5.35077 5.19272C5.31007 5.15182 5.26937 5.13137 5.20832 5.09048L4.67926 4.76331L4.55716 4.98824L5.14728 5.3563C5.18798 5.37675 5.20832 5.3972 5.20832 5.41765C5.20832 5.4381 5.20832 5.45854 5.20832 5.47899C5.18798 5.49944 5.18798 5.51989 5.16763 5.51989C5.14728 5.51989 5.12693 5.51989 5.08623 5.47899L4.49612 5.11092L4.37402 5.33585L4.90309 5.66302C4.94379 5.68347 5.00484 5.70392 5.04553 5.70392Z" fill="#002F87"/>
<path d="M6.10383 4.53834L5.69686 4.10893L6.22593 4.41565L6.42941 4.23161L5.7579 3.53638L5.57476 3.69996L6.00209 4.12937L5.47302 3.82265L5.26953 4.00669L5.94104 4.70192L6.10383 4.53834Z" fill="#002F87"/>
<path d="M6.67909 2.85217L6.47266 2.98323L6.98347 3.79571L7.18991 3.66466L6.67909 2.85217Z" fill="#002F87"/>
<path d="M8.05707 3.25044L7.91463 2.88237L8.19951 2.78013L8.13847 2.5961L7.85358 2.69834L7.79254 2.53475L8.09777 2.43251L8.01637 2.22803L7.4873 2.43251L7.83323 3.33223L8.05707 3.25044Z" fill="#002F87"/>
<path d="M9.15614 2.77996L9.35962 2.75951L9.40032 2.9231L9.66486 2.8822L9.29858 1.96204L8.99335 2.00293L8.8916 2.98444L9.15614 2.94355V2.77996ZM9.17649 2.16652L9.29858 2.55503L9.15614 2.57548L9.17649 2.16652Z" fill="#002F87"/>
<path d="M10.4376 2.8822C10.4783 2.90265 10.5394 2.9231 10.6004 2.9231C10.6411 2.9231 10.6818 2.9231 10.7225 2.9231C10.7632 2.9231 10.8039 2.90265 10.8242 2.8822C10.8649 2.86176 10.8853 2.82086 10.9056 2.77996C10.926 2.73907 10.9463 2.67772 10.9463 2.61638V2.55503L10.7022 2.53458C10.7022 2.57548 10.7022 2.61638 10.6818 2.65727C10.6818 2.67772 10.6615 2.71862 10.6615 2.71862C10.6615 2.73907 10.6411 2.73907 10.6411 2.75951C10.6208 2.75951 10.6208 2.75951 10.6004 2.75951C10.5801 2.75951 10.5597 2.75951 10.5597 2.73907C10.5597 2.71862 10.5394 2.71862 10.5394 2.67772C10.5394 2.65727 10.5394 2.61638 10.5394 2.57548C10.5394 2.53458 10.5394 2.47324 10.5597 2.4119C10.5597 2.35055 10.5801 2.28921 10.5801 2.24831C10.5801 2.20741 10.6004 2.16652 10.6004 2.14607C10.6004 2.12562 10.6208 2.10517 10.6411 2.10517C10.6615 2.10517 10.6615 2.08473 10.6818 2.10517C10.7022 2.10517 10.7225 2.12562 10.7225 2.14607C10.7225 2.16652 10.7225 2.20741 10.7225 2.26876V2.3301L10.9667 2.35055V2.28921C10.9667 2.24831 10.9667 2.20741 10.9667 2.16652C10.9667 2.12562 10.9463 2.08473 10.926 2.06428C10.9056 2.04383 10.8649 2.00293 10.8446 2.00293C10.8039 1.98248 10.7632 1.98248 10.7022 1.96204C10.6411 1.96204 10.5801 1.96204 10.5394 1.96204C10.4987 1.98248 10.458 2.00293 10.4173 2.04383C10.3766 2.08473 10.3562 2.12562 10.3359 2.18697C10.3155 2.24831 10.2952 2.3301 10.2952 2.4119C10.2952 2.49369 10.2748 2.57548 10.2952 2.63683C10.2952 2.69817 10.3155 2.75951 10.3359 2.80041C10.3562 2.84131 10.3969 2.86176 10.4376 2.8822Z" fill="#002F87"/>
<path d="M11.7403 3.16867C11.781 3.18912 11.8217 3.20957 11.8623 3.23002C11.9641 3.27092 12.0455 3.27092 12.1269 3.25047C12.1879 3.23002 12.249 3.16867 12.2897 3.06643C12.31 3.00509 12.31 2.96419 12.31 2.9233C12.31 2.8824 12.2897 2.8415 12.2693 2.82106C12.249 2.78016 12.2286 2.75971 12.1879 2.73926C12.1676 2.71881 12.1269 2.69837 12.1065 2.65747C12.0862 2.63702 12.0658 2.61657 12.0455 2.59613C12.0251 2.57568 12.0251 2.53478 12.0455 2.51433C12.0455 2.49388 12.0658 2.47344 12.0862 2.47344C12.1065 2.45298 12.1269 2.45298 12.1472 2.47344C12.1676 2.47344 12.1879 2.49388 12.1879 2.51433C12.1879 2.53478 12.1879 2.55523 12.1879 2.59613V2.61657L12.4118 2.69837C12.4525 2.59613 12.4525 2.51433 12.4118 2.45298C12.3914 2.39164 12.31 2.35074 12.2083 2.30985C12.1065 2.26895 12.0251 2.26895 11.9641 2.30985C11.903 2.35074 11.842 2.41209 11.8217 2.49388C11.8013 2.55523 11.8013 2.59613 11.8013 2.63702C11.8013 2.67792 11.8217 2.71881 11.842 2.73926C11.8624 2.75971 11.8827 2.80061 11.9234 2.82106C11.9437 2.8415 11.9844 2.86195 12.0048 2.8824C12.0251 2.90285 12.0455 2.9233 12.0658 2.94374C12.0862 2.96419 12.0862 2.98464 12.0658 3.02554C12.0658 3.04599 12.0455 3.06643 12.0251 3.08688C12.0048 3.10733 11.9844 3.10733 11.9641 3.08688C11.9437 3.08688 11.9234 3.06643 11.9234 3.04599C11.9234 3.02554 11.9234 3.00509 11.9234 2.96419V2.94374L11.6996 2.86195H11.6385C11.6182 2.90285 11.6182 2.94374 11.6182 2.98464C11.6182 3.02554 11.6385 3.04599 11.6589 3.08688C11.6792 3.10733 11.6996 3.12778 11.7403 3.16867Z" fill="#002F87"/>
<path d="M9.88878 14.3331C9.90913 14.3127 9.92948 14.3127 9.92948 14.2922C9.94983 14.2718 9.94983 14.2513 9.97018 14.2309C9.99053 14.2104 9.99053 14.19 9.99053 14.1491C9.99053 14.0673 9.97018 14.0264 9.92948 13.965C9.88878 13.9241 9.82774 13.8832 9.72599 13.8832L9.33937 13.8628L9.27832 14.8239L9.66495 14.8443C9.72599 14.8443 9.76669 14.8443 9.80739 14.8239C9.84809 14.8034 9.86844 14.8034 9.90913 14.7625C9.92948 14.7421 9.94983 14.7012 9.97018 14.6807C9.99053 14.6398 9.99053 14.5989 9.99053 14.558C9.99053 14.5376 9.99053 14.5171 9.99053 14.4762C9.99053 14.4558 9.97018 14.4353 9.97018 14.4149C9.94983 14.3944 9.94983 14.374 9.90913 14.3535C9.88879 14.3331 9.86844 14.3331 9.82774 14.3331C9.84809 14.3535 9.88878 14.3535 9.88878 14.3331ZM9.70565 14.6603C9.6853 14.6807 9.66495 14.6807 9.6446 14.6807H9.58355L9.6039 14.4558H9.66495C9.6853 14.4558 9.70565 14.4762 9.72599 14.4967C9.74634 14.5171 9.74634 14.5376 9.74634 14.5785C9.72599 14.5989 9.72599 14.6398 9.70565 14.6603ZM9.70565 14.2513C9.6853 14.2718 9.66495 14.2718 9.6446 14.2718H9.58355L9.6039 14.0673H9.66495C9.6853 14.0673 9.70565 14.0877 9.72599 14.1082C9.74634 14.1286 9.74634 14.1491 9.74634 14.19C9.74634 14.2104 9.72599 14.2309 9.70565 14.2513Z" fill="#002F87"/>
<path d="M10.7632 13.863L10.7021 14.8445L10.9667 14.8036V14.64L11.1702 14.5991L11.2312 14.7627L11.4958 14.7218L11.1091 13.8016L10.7632 13.863ZM10.9667 14.4355V14.0266L11.1091 14.4151L10.9667 14.4355Z" fill="#002F87"/>
<path d="M12.1876 13.4538L12.33 13.781L12.1876 13.8423L12.0451 13.5151L11.8213 13.6174L12.1876 14.4967L12.4114 14.4149L12.269 14.0468L12.4114 13.9855L12.5538 14.3535L12.7777 14.2513L12.4114 13.3516L12.1876 13.4538Z" fill="#002F87"/>
<path d="M13.1422 12.9224L12.9385 13.0576L13.4657 13.8595L13.6694 13.7243L13.1422 12.9224Z" fill="#002F87"/>
<path d="M13.7549 12.4315L14.2636 13.2903L14.4467 13.1063L14.345 12.9631L14.4874 12.82L14.6299 12.9222L14.813 12.7382L13.9787 12.2065L13.7549 12.4315ZM13.9991 12.4724L14.3247 12.7177L14.2229 12.82L13.9991 12.4724Z" fill="#002F87"/>
</g>
<defs>
<clipPath id="clip0_83_1078">
<rect width="72.8487" height="15.9496" fill="white" transform="translate(0.853516 0.428467)"/>
</clipPath>
</defs>
</svg>
